<svg xmlns="http://www.w3.org/2000/svg" width="389.871774" height="256.494588" viewBox="0 0 76.174 49.673"><clipPath id="a"><path d="M94.67 0h747.67v481H94.67z"/></clipPath><g stroke-width="10.07"><path fill="#fff" d="M832.46 204.35c-20.78-10.17-56.92-21.89-56.92-21.89-1.55-.41-4.67-1.43-4.67-1.43s1.58-2.34 2.03-4.09c1.25-4.49 1-9.72-1.9-11.35 0 0 15.77.87 19.19-.46 9.7-3.78 13.42-16.79 10.01-26-1.78-4.82-9.37-7.84-10.93-11.87-1.48-3.82-2.45-6.82-6.51-8.88-6.55-3.31-23.14-6.21-30.44-5.57-6.16.54-7.34 7.65-11.15 9.29-15.23 6.56-22.02 3.48-21.87 26.21 0 0 0 1.07.17 1.97-5.51-2.67-19.29-9.42-25.67-12.26V.47H243.2v137.54c-6.38 2.84-20.16 9.59-25.67 12.26.17-.9.17-1.97.17-1.97.15-22.73-6.65-19.65-21.87-26.21-3.8-1.64-4.99-8.75-11.15-9.29-7.3-.63-23.88 2.26-30.44 5.57-4.06 2.06-5.03 5.06-6.51 8.88-1.55 4.03-9.15 7.05-10.93 11.87-3.41 9.21.31 22.22 10.01 26 3.42 1.33 19.19.46 19.19.46-2.9 1.63-3.15 6.87-1.9 11.35.45 1.74 2.03 4.09 2.03 4.09s-3.13 1.03-4.67 1.43c0 0-36.14 11.73-56.93 21.89 0 0-24.92 11.71 5.98 9.47 1.5 0 24.66-1.79 48.82-5.38l-.15 1.36c-.03 7.81 1.67 7.77 8.16 10l-.21 1.44c-8.14 1.65-24.32 3.26-29.95 7.03-6.17 4.13-23.03.93-33.15 14.71-2.66 3.62-7.09 14.61-4.49 18.19 4.27 5.84 28.71 14.39 31.9 14.46 7.64.17 8.42-6.09 13.81-9.8 2.59-1.79 5.69-.59 8.56-1.34 4.32-1.15 6.72-5.08 10.52-7.06 2.22-1.14 6.98-2.24 10.01-.47 13.42 8.26 54.56-2.22 68.84-10.66v74.53c0 26.53 3.37 36.68 11.43 50.71l.67 1.1c45.85 68.57 123.56 107.89 213.2 107.9 89.65 0 167.28-39.22 212.99-107.59l.69-1.07c8.2-14.28 11.62-24.53 11.62-51.05V246.3c14.28 8.44 55.42 18.92 68.84 10.66 3.03-1.77 7.79-.67 10.01.47 3.8 1.97 6.2 5.91 10.53 7.06 2.87.76 5.97-.45 8.56 1.34 5.39 3.7 6.18 9.96 13.81 9.8 3.19-.07 27.63-8.62 31.9-14.46 2.61-3.58-1.82-14.58-4.49-18.19-10.11-13.77-26.98-10.58-33.15-14.71-5.63-3.76-21.81-5.38-29.95-7.03l-.21-1.44c6.49-2.24 8.19-2.19 8.16-10l-.15-1.36c24.16 3.59 47.32 5.38 48.82 5.38 30.93 2.24 6-9.47 6-9.47z" clip-path="url(#a)" transform="matrix(.0993 0 0 .0993 -8.384 1.308)"/><path fill="#dadada" d="M35.958 28.077c-2.38 0-4.6-.684-6.478-1.862a10.955 10.955 0 0 0 8.662 4.238c4.2 0 7.847-2.36 9.692-5.824l-.013-.004c-.216-.06-.54-.187-.913-.334-.419-.165-1.182-.466-1.443-.497-.05.03-.142.104-.211.16a4.721 4.721 0 0 1-.459.336 12.18 12.18 0 0 1-8.837 3.787z"/><path fill="#dd0741" d="M70.046 16.413c.132-.196.134-.557.031-.769-.118-.242-.48-.314-.708-.399-.286.062.032.312-.214.42l-.553-.071c-.348-.36.38-.31.42-.503.06-.279-.204-.536-.03-.81-.03-.067-.071-.137-.145-.164-.285-.102-1.988-.51-2.223-.493l-.072.083c.069.094.356.355.369.38.113.205-.652.352-.779.379-.612.129-2.248.325-2.008 1.29.112.455 1.739 1.61 1.936 2.11.043.109.256.334.114.432-.3.203-1.805-.069-1.886.165.084.314.98.553 1.271.665.344.131.662.23 1.024.052.405-.199.668-.735.595-1.18-.035-.203-.255-.701-.38-.87-.118-.157-1.107-.94-.83-1.046.334.106.79.011 1.025.328.623.177 1.289.285 1.926.4.41.075.875-.04 1.117-.4zm-13.63 7.685a.444.444 0 0 0 .01-.38c-.05-.05-.101-.111-.184-.122-.287.062-.574.194-.902.113-.298 0-.78-.267-.912.133-.052.256-.196.472-.257.718 0 .133.123.256.245.318.185.04.41.143.574.112.308-.215.287-.605.594-.83.165.042.184.268.37.247a.607.607 0 0 0 .462-.309zm7.472-4.764c.052-.29-.274-.337-.472-.4a39.867 39.867 0 0 0-1.423-.44c-.35-.1-.704-.287-1.057-.36-.445-.091-.796-.1-1.107-.492l.072-.041c.42.167 1.097.529 1.538.236.208-.14.427-.513.328-.768-.075-.191-.31-.217-.472-.288-.69-.3-1.368-.67-2.042-1.008-1.426-.71-2.849-1.427-4.27-2.148-.647-.327-1.38-.705-2.09-.86-.58-.126-1.238.034-1.742.338-.5.301-.488 1.009-.861.934-.054-.06-.099-.134-.093-.216-.15-.24-.622.433-1.004.625-.852.428-2.346 2.062-2.96 2.839-.39.49-.544 1.116-.687 1.71l.082.113c.187.045.359-.032.523-.112.155.04.14.235.225.347.622.838 2.273.351 3.177.656.013.055 0 .105-.062.112-.404.052-.94-.033-1.355-.044-.956-.024-1.912-.036-2.867-.089l-.113.062c-.089.195-.614 1.321-.697 1.413-.129.14-.317.249-.453.4-.37.415-.64.917-1.105 1.24-.139.096-.419.15-.481.306l.071.083c1.412.115 1.555-1.367 2.5-1.7.052.01.072.065.061.113a3.597 3.597 0 0 0-.634.87c-.552 1.118-.946.777-1.476 1.292l.083.123c1.562-.046 1.847-.925 2.356-.995.435-.062 2.065.702 2.603.85.27.075.536.167.821.163.095-.002.224-.053.306-.05.21.008.25.38.708.165.275-.13.293-.523.328-.79.041-.32-.357-.595-.328-.768.04-.247.349.083.42-.133.042-.13-.118-.393-.196-.492-.205-.263-.786-.713-.707-1.096.008-.037.118-.118.154-.113l1.896.236c.066.008.355.68.359.748.005.102-.272.795-.328.932-.159.376-.435.65-.431 1.086.005.535.365 1.032.635 1.475.298.492.776.257 1.21.4.178.059.37.181.544.26.55.24 1.167.49 1.751.632.32.078.815-.03 1.004-.328.138-.218-.328-.284-.122-.523.109-.127.245-.12.399-.102.329.037 2.016.241 2.193.051.06-.063-.03-.149-.082-.174-.34-.164-.866-.244-1.24-.348-.452-.128-.92-.16-1.373-.298-.386-.118-.361.276-.636.451-.414.265-1.525-.263-1.66-.739-.13-.457.287-1.035.583-1.341.234-.243.519-.278.75-.462.145-.117.041-.349.04-.502.227-.285 1.083.17 1.434.073.38-.106.096-.608.421-.707.286.08.51.287.79.389.206.075.57.114.707.297.108.146-.003.347-.031.501.1.19.419.25.614.277.316.046.659.027.98.062.32.034.642.125.957.154l1.066.102c.258.123-.062.344.174.84-.253-.036-1.295-.347-1.414 0 .92.857 3.006 1.463 4.242 1.64.757.108 1.558.083 2.316.02.115-.008.216-.027.284-.087.002.005.406-.336.624-.302.297.05.643.62 1.261.856.421.237.82-.174 1.148.01.401.227.652 1.369 1.29 1.19.13-.038.684-.23.76-.304.21-.173-.145-.627-.328-.931-.065-.094-.11-.163-.188-.183-.742-.19-.392-1.037-1.453-1.238-.478-.09-.596-.13-1.076-.219-.129-.025-.422.04-.437-.146-.003 0 .08-.09.08-.09l.85-.019-.02-.112c-1.362-.171-2.696-.558-4.058-.72-.102-.059-.231-.374-.215-.47.04-.248.433.214.635-.277.118-.284-.166-.527.062-.666.598.076 1.195.152 1.793.236-3.38-.806-6.788-1.483-10.167-2.284-.732-.174-1.481-.289-2.202-.512l.01-.082c2.982.417 5.933 1.137 8.926 1.455v-.072c-1.655-.315-3.293-.736-4.95-1.035-2.47-.444-4.96-.815-7.44-1.195-1.619-.248-3.264-.55-4.897-.69l-.052.112c.11.134.263.197.41.277.021.033.023.077-.01.102-.208-.021-1.136.038-1.137-.183.345-.328.43-.499.931-.451.782.072 1.57.188 2.348.286 4.483.575 9 1.176 13.455 1.947 4.698.814 7.183 1.177 11.044 1.92-1.311-.47-7.226-2.128-10.246-2.649-.138-.025-.318-.003-.385-.163zM62.78 24.6c.236.02.363.015.67.077.503.103 1.005.143 1.516.287.083.031.172.147.182.229-.03.051-.104.065-.145.065l-1.998-.511zm-11.026-.82.553-1.301c.02-.093.113-.185.205-.174.123.04.277.061.318.204l-.472 1.015c-.328.431-.092 1.025.021 1.455-.01.062-.072.093-.124.103-.327-.33-.625-.79-.501-1.303zm-4.211-.911c-.126.094-.348.042-.506.02-.19-.105-.232-.325-.254-.537 0-.051.011-.105.064-.148.221 0 .443.054.59.233.064.137.18.284.106.432zm6.723-5.313.275.127s-4.057-.574-6.015-.86c-.082-.01-.337-.036-.294-.18a.254.254 0 0 1 .174-.04zm1.045-1.81-.042.041c-1.036-.2-2.1-.445-3.115-.727-.079-.021-.26-.036-.237-.153.373-.071 2.074.378 2.5.522.19.064.303.02.493 0 .145.09.292.182.4.317zm-35.457 7.972a.444.444 0 0 0 .011.38c.092.173.276.286.461.307s.205-.205.37-.246c.306.225.287.615.593.829.164.03.39-.071.574-.112.123-.062.246-.185.246-.318-.062-.245-.206-.46-.258-.718-.132-.4-.613-.133-.912-.133-.328.081-.614-.05-.902-.113-.08.01-.13.073-.183.124zm13.937-.236.072-.083c-.062-.158-.342-.21-.482-.307-.465-.322-.734-.824-1.104-1.238-.136-.152-.326-.26-.453-.401-.084-.093-.608-1.218-.697-1.413l-.114-.062c-.954.053-1.911.064-2.866.09-.415.01-.95.095-1.356.043-.062-.007-.075-.057-.062-.112.904-.305 2.556.182 3.177-.656.086-.113.072-.308.227-.347.163.08.335.157.522.112l.082-.112c-.143-.595-.299-1.222-.686-1.711-.615-.777-2.11-2.41-2.961-2.84-.382-.191-.853-.863-1.004-.624.007.082-.039.156-.092.216-.374.075-.363-.632-.861-.934-.505-.304-1.163-.464-1.742-.338-.71.155-1.445.534-2.09.86a635.209 635.209 0 0 1-4.27 2.148c-.675.337-1.352.707-2.043 1.008-.161.07-.397.097-.471.288-.1.255.119.629.327.768.441.293 1.118-.069 1.539-.236l.071.041c-.31.392-.662.4-1.107.493-.353.073-.705.26-1.057.36-.478.135-.949.285-1.423.438-.198.064-.525.11-.471.4-.069.161-.248.139-.389.163-3.02.52-8.934 2.178-10.246 2.649 3.86-.743 6.347-1.106 11.045-1.92 4.455-.771 8.97-1.372 13.455-1.947.78-.1 1.566-.215 2.347-.286.503-.047.586.124.932.45-.001.222-.93.163-1.138.184-.033-.025-.031-.07-.01-.102.148-.08.3-.142.41-.277l-.052-.112c-1.632.139-3.278.442-4.896.69-2.482.38-4.97.75-7.44 1.195-1.658.299-3.295.72-4.95 1.035v.072c2.992-.318 5.944-1.037 8.925-1.455l.01.082c-.72.223-1.47.338-2.202.512-3.378.802-6.788 1.478-10.167 2.284.598-.084 1.196-.159 1.794-.236.227.139-.057.382.061.666.203.49.595.029.636.277.016.096-.114.411-.216.47-1.361.162-2.696.548-4.057.72l-.02.112.85.02s.082.09.08.09c-.016.185-.309.12-.438.145-.48.09-.597.13-1.075.219-1.062.201-.711 1.048-1.454 1.238-.077.02-.122.09-.188.183-.181.303-.538.758-.327.931.076.075.63.266.76.303.639.18.889-.962 1.29-1.189.327-.184.726.227 1.147-.01.618-.237.964-.806 1.261-.856.218-.034.623.307.625.302.069.06.17.079.284.088.759.062 1.56.088 2.316-.021 1.236-.177 3.323-.782 4.242-1.64-.12-.347-1.16-.036-1.415 0 .236-.496-.082-.717.174-.84l1.066-.102c.315-.03.637-.121.957-.154.321-.034.665-.016.98-.062.195-.028.514-.087.615-.277-.028-.154-.14-.356-.031-.501.136-.182.5-.22.707-.297.279-.102.503-.308.79-.39.323.099.04.602.42.708.35.096 1.207-.358 1.434-.073 0 .153-.105.386.041.502.23.184.514.22.749.462.297.307.713.885.584 1.341-.134.476-1.247 1.004-1.66.739-.275-.175-.25-.569-.636-.45-.453.137-.922.169-1.374.297-.374.104-.9.183-1.24.348-.052.025-.14.11-.081.174.175.191 1.864-.014 2.192-.051.154-.017.291-.025.4.102.205.24-.26.305-.123.523.19.297.685.405 1.004.328.584-.14 1.201-.391 1.751-.632.175-.078.367-.201.544-.26.433-.143.911.092 1.21-.4.27-.443.63-.94.635-1.475.005-.436-.272-.71-.43-1.086-.057-.137-.333-.83-.328-.932.004-.068.293-.74.358-.748l1.896-.236c.037-.005.146.076.154.113.08.383-.502.833-.707 1.096-.078.098-.237.361-.195.492.07.216.38-.113.42.133.03.174-.37.447-.328.768.033.267.052.66.327.79.458.216.499-.157.708-.164.082-.004.21.047.306.049.285.004.551-.089.821-.162.539-.148 2.168-.912 2.603-.851.51.07.795.949 2.357.995l.082-.123c-.531-.514-.923-.174-1.476-1.292a3.597 3.597 0 0 0-.635-.87c-.01-.048.009-.104.06-.114.949.336 1.092 1.817 2.504 1.702zM13.501 24.6l-.225.148-1.998.511c-.04 0-.114-.015-.145-.065.01-.083.1-.198.182-.229.512-.144 1.014-.185 1.516-.287.307-.063.435-.058.67-.078zm11.027-.82c.123.513-.175.973-.502 1.301-.051-.01-.113-.041-.124-.103.113-.43.35-1.024.021-1.455l-.472-1.015c.042-.143.196-.164.318-.204.093-.01.185.081.206.174zm-.164-8.874c.023.117-.158.133-.236.153-1.016.282-2.08.527-3.116.727l-.041-.041c.108-.135.255-.227.399-.318.19.02.303.064.492 0 .428-.143 2.13-.592 2.502-.52zm3.391 1.916c-1.958.287-6.015.861-6.015.861l.275-.127 5.86-.953c.062-.011.124.01.174.04.043.143-.211.17-.294.18zm1.743 5.53c-.022.212-.063.433-.254.538-.158.02-.38.073-.506-.021-.074-.147.042-.295.106-.432.147-.179.368-.233.59-.233.053.042.064.096.064.148zm-17.35-6.595c.24-.967-1.396-1.163-2.008-1.291-.127-.027-.891-.174-.778-.38.013-.024.3-.284.368-.38l-.071-.082c-.236-.017-1.939.39-2.224.493-.073.027-.113.097-.144.164.173.274-.09.531-.03.81.04.193.767.143.42.503l-.554.071c-.247-.108.072-.357-.215-.42-.229.085-.59.156-.708.4-.102.21-.1.571.032.768.24.36.707.474 1.117.4.637-.115 1.303-.223 1.926-.4.236-.317.69-.222 1.025-.328.278.105-.712.889-.83 1.046-.125.168-.345.666-.38.87-.073.446.191.981.595 1.18.362.177.682.079 1.024-.052.291-.111 1.187-.35 1.271-.665-.081-.234-1.586.038-1.885-.165-.142-.097.07-.323.112-.431.198-.502 1.825-1.658 1.937-2.111zm-7.538 9.26c-.052-.161-1.063.019-1.118.214-.082.287.759.665 1.118-.213zm-2.262 1.76c.02.031.139.089.191.122.215.115.419.32.562.135.074-.095.47-.777.544-1.035.03-.104-.04-.252-.287-.262h-.05c-.643.064-.848.62-.96 1.04zm70.442-1.546c-.057-.195-1.068-.375-1.119-.213.36.878 1.2.5 1.119.213zm-.153.769c.074.257.47.94.544 1.035.143.184.346-.02.56-.135.053-.033.172-.09.193-.123-.113-.42-.317-.975-.96-1.04h-.05c-.248.01-.317.159-.287.263z"/><path fill="#001f47" d="M59.336 33.168v-6.58h-1.228v6.58c0 2.337-.271 2.887-.814 3.836-4.157 6.217-11.185 9.615-19.153 9.615s-14.996-3.398-19.152-9.615c-.544-.95-.815-1.5-.815-3.836v-6.592h-1.228v6.592c0 2.483.298 3.263.979 4.449l.045.071c4.54 6.793 12.082 10.161 20.172 10.161s15.63-3.368 20.173-10.16l.043-.072c.68-1.185.978-1.965.978-4.45zM28.9 14.625a29.983 29.983 0 0 1 1.563-2.99 11.009 11.009 0 0 0-2.191 3.031c.116.1.233.203.351.312.092-.117.183-.235.277-.353zm18.99 25.864 2.04-1.28-.46-.733-1.278.801-1.83-5.755-.44-.704-2.04 1.28.46.733 1.277-.801 1.83 5.754zm-1.005-24.78c-1.073-.744-2.666-1.534-2.666-1.534-1.133 1.595-2.075 3.568-2.075 3.568.558 1.165 1.393 2.481 1.852 3.295.617-.906.87-1.76 1.255-2.985.28-.89.656-1.37 1.634-2.343zm-9.436 2.078s-1.369-2.18-2.802-3.807c0 0-3.019 1.347-4.131 1.925l-.05.825c.017.055.416.63.584 1.253l.339 1.08.076.232c.076.221.18.496.306.78.114.259.246.526.392.769.117.195.26.372.431.521l.014.012c.152.132.332.227.527.28.522.145 1.109.3 1.747.453 0 0 1.905-3.038 2.567-4.323zm.69-9.287c-1.237 0-2.425.208-3.536.586l2.089 1.649s2.549-.242 4.839.052a5.5 5.5 0 0 0 .579-1.283 10.664 10.664 0 0 1 5.33 5.676c.188-.182.379-.355.567-.514A10.977 10.977 0 0 0 38.14 8.5zm14.168 28.927.613-.609-5.28-5.322-.033-.034-.613.61 5.28 5.322zm.43-5.82 2.092 1.32-.36.573-4.916-3.1.361-.574.663.418.462-.732-.428-.27a1.196 1.196 0 0 0-.64-.184c-.42 0-.8.21-1.02.56a1.208 1.208 0 0 0 .375 1.661l4.45 2.804c.191.122.413.185.639.185.419 0 .8-.21 1.022-.56a1.207 1.207 0 0 0-.379-1.661l-2.59-1.634-.639 1.014.733.462zM43.89 42.106l-.975-3.192.692-.212a.814.814 0 0 0 .484-.398.813.813 0 0 0 .059-.625l-.75-2.455a.814.814 0 0 0-1.022-.545l-1.52.465 2.19 7.169.013.045zm-1.229-4.022-.722-2.364.648-.198.722 2.365zm-2.27 4.72-.653-7.517-.862.076.653 7.516zm-3.26-.736-1.532-.182.291-2.456 1.15.137.102-.86-1.15-.137.292-2.456 1.53.182.103-.86-1.578-.188a.817.817 0 0 0-.908.717l-.697 5.865a.82.82 0 0 0 .716.91l1.578.188zm1.01-11.614c4.2 0 7.847-2.36 9.692-5.824l-.013-.004c-.216-.06-.54-.187-.913-.334l-.053-.021a10.679 10.679 0 0 1-4.086 4.114l-.875-2.46-4.752.129-1.861 2.61s.778.585 2.174 1.079a10.565 10.565 0 0 1-6.143-2.042c.057-.049.113-.1.157-.149 0 0-1.288-1.854-2.075-3.268a.166.166 0 0 1-.02.008c-.373.147-.696.274-.913.334l-.013.004a10.975 10.975 0 0 0 9.694 5.824zm-5.099 10.963-1.458-.502 2.178-6.313-.817-.282-2.46 7.131 2.275.784zm-5.144-5.62c.037.004.07.006.103.006.188 0 .35-.083.504-.264l1.54-1.786a.811.811 0 0 0 .197-.595.812.812 0 0 0-.282-.56l-1.204-1.037-4.925 5.716 1.203 1.038a.82.82 0 0 0 1.155-.087l1.479-1.716c.233-.272.308-.497.23-.716zm-.675-.046-.02.024-1.636 1.897-.56-.483 1.655-1.922zm.52-.653-.512-.442 1.615-1.872.512.441zm-3.727-2.838.389.555-2.245 1.571c-.17.12-.297.322-.372.471l-.013.026.516.737.036-.072c.085-.173.164-.336.33-.453l2.035-1.424c.295-.206.42-.406.4-.636.07.028.15.05.24.05a.714.714 0 0 0 .41-.15l1.932-1.353a.81.81 0 0 0 .337-.528.813.813 0 0 0-.136-.612l-.911-1.302-6.18 4.327.495.708zm.665-.503.026-.018 2.051-1.436.424.607-.026.018-2.051 1.435zm33.427-17.854 1.229.571V2.533H16.946v11.93l1.228-.576V3.763h39.934z"/></g></svg>