<svg xmlns="http://www.w3.org/2000/svg" xml:space="preserve" width="209.47673" height="209.47673" x="0px" y="0px" version="1.2" viewBox="0 0 209.47672 209.47672"><path d="M209.477 104.738c0 57.85-46.895 104.739-104.739 104.739C46.892 209.477 0 162.587 0 104.738 0 46.894 46.892 0 104.738 0c57.844 0 104.739 46.894 104.739 104.738" style="fill:#dba111"/><path d="M205.982 104.738c0 55.917-45.327 101.245-101.244 101.245-55.918 0-101.246-45.327-101.246-101.245C3.492 48.82 48.82 3.492 104.738 3.492c55.916 0 101.244 45.328 101.244 101.246" style="fill:#034694"/><path d="M176.888 104.738c0 39.848-32.303 72.146-72.15 72.146-39.85 0-72.154-32.298-72.154-72.146 0-39.851 32.304-72.153 72.154-72.153 39.848 0 72.15 32.302 72.15 72.153" style="fill:#dba111"/><path d="M174.705 104.738c0 38.642-31.33 69.967-69.967 69.967-38.642 0-69.967-31.325-69.967-69.967 0-38.642 31.325-69.968 69.967-69.968 38.638 0 69.967 31.326 69.967 69.968" style="fill:#fff"/><path d="M44.787 165.1c.774.74 2.678 2.553 2.678 2.553l1.826-1.922-5.446-5.192-.7.735-7.313 7.666 2.777 2.642s2.345-2.459 3.203-3.355c.717.68 2.437 2.321 2.437 2.321l1.827-1.918s-1.718-1.639-2.434-2.325l1.145-1.205M57.92 173.855c-.246-1.47-1.072-2.769-2.32-3.656a5.643 5.643 0 0 0-4.206-.991c-1.583.27-3.006 1.192-4.008 2.594-.998 1.412-1.402 3.057-1.133 4.646.247 1.466 1.067 2.756 2.312 3.644 1.246.886 2.749 1.24 4.217.993 1.582-.266 3.006-1.191 4.004-2.598.8-1.115 1.216-2.393 1.216-3.67 0-.318-.026-.645-.082-.962m-7.82 4.072c-1.273-.9-.222-2.783.519-3.817.74-1.043 2.173-2.656 3.446-1.757 1.328.95.087 3.003-.509 3.836-.598.843-2.125 2.687-3.456 1.738zM66.48 176.762c-2.93-1.483-6.32-.268-7.877 2.818-.78 1.542-.933 3.235-.43 4.759.464 1.416 1.47 2.57 2.834 3.257a5.604 5.604 0 0 0 4.317.35c1.522-.497 2.792-1.623 3.568-3.164 1.563-3.091.524-6.537-2.412-8.02m-3.241 8.575c-.344.113-.67.077-1.04-.107-.582-.296-.786-.825-.786-1.417 0-.818.393-1.782.727-2.44.578-1.143 1.752-2.948 3.145-2.245.368.187.588.431.699.77.233.704-.001 1.86-.63 3.096-.624 1.237-1.415 2.111-2.115 2.343zM72.532 181.005l-.54 1.546s1.38.484 1.799.622l-2.962 8.456 3.613 1.267s2.438-6.94 2.964-8.45l1.801.627.876-2.495-7.215-2.532-.336.959M87.534 184.357l-4.883-1.031-.209.993-2.182 10.363 4.969 1.054c1.588.328 2.634-.062 3.23-.448.757-.494 1.288-1.304 1.492-2.272.056-.263.083-.52.083-.77 0-.7-.222-1.33-.623-1.872.56-.444.959-1.072 1.125-1.855a3.3 3.3 0 0 0 .067-.669c0-1.326-.757-3.01-3.07-3.493m-1.343 7.912c-.052.236-.148.55-.327.667-.166.107-.484.121-.897.032 0 0-.187-.042-.41-.086.16-.747.265-1.245.42-1.994.212.05.484.104.484.104.64.135.764.609.764.953 0 .139-.018.256-.034.324zm-.334-5.547c.429.098.744.255.865.438a.623.623 0 0 1 .083.342c0 .084-.012.181-.034.299-.065.303-.154.725-1 .551 0 0-.104-.027-.25-.058l.336-1.572zM96.548 186.045l-5.304 10.86 3.029.233 1.147-2.42c.64.054 1.283.099 1.91.15.236.725.828 2.566.828 2.566l4.029.313-4.502-13.956-1.137 2.254M108.506 194.714l-.372-8.813-3.826.161.483 11.596 7.67-.318-.115-2.783s-2.74.117-3.84.157M119.003 193.603l-1.366-8.713-1.003.161-2.784.434 1.797 11.47 7.586-1.192-.435-2.751s-2.706.427-3.795.591M140.965 185.889c-.03.994-.617 1.85-1.531 2.212-.507.201-.991.201-1.476-.004-.744-.319-1.433-1.124-1.847-2.16-.487-1.22-.586-2.258-.266-2.987.22-.51.65-.891 1.307-1.155.713-.283 1.39-.022 2.316.524l.85.502 1.413-2.228-.838-.551c-1.54-1.012-3.448-1.219-5.098-.56-1.531.61-2.718 1.753-3.346 3.213-.636 1.481-.636 3.176.01 4.784 1.218 3.047 4.663 4.548 7.674 3.342 2.177-.87 3.408-2.523 3.565-4.781l.072-1.008-2.773-.206-.032 1.063M149.898 182.72c-.784-1.392-4.305-7.71-4.305-7.71l-.883.497-2.464 1.377 5.664 10.133 6.696-3.74-1.356-2.433s-2.396 1.336-3.352 1.877M157.346 167.093l-.821.6-1.439 1.058 4.7 6.407c.216.29.216.483.197.596-.045.33-.39.689-.694.909a1.21 1.21 0 0 1-.816.188c-.243-.035-.434-.167-.605-.397l-4.645-6.335-3.096 2.266 4.623 6.303c.686.933 1.538 1.485 2.532 1.637 1.115.174 2.383-.206 3.561-1.077 2.424-1.772 2.385-4.125 1.327-5.567l-4.824-6.588M171.45 164.764c-.713-.74-1.592-1.072-2.515-1.021a3.13 3.13 0 0 0-.886-1.976c-.969-1-3.133-1.778-5.126.161l-3.585 3.467 8.078 8.34 3.646-3.535c1.166-1.13 1.422-2.223 1.433-2.93.02-.907-.353-1.794-1.046-2.506m-6.102-.281c.12.128.267.278.267.487 0 .17-.093.382-.373.65l-.178.178c-.452-.469-.667-.69-1.125-1.16.808-.742 1.144-.426 1.409-.155zm1.912 2.871c.655-.632 1.285-.077 1.465.112.174.175.372.42.372.634v.007c-.004.197-.17.47-.47.761 0 0-.14.135-.305.291-.528-.546-.886-.913-1.415-1.456.156-.156.353-.349.353-.349z" style="fill:#dba111"/><path d="M44.761 164.025c.316.304 2.675 2.553 2.675 2.553l.778-.82-4.346-4.144-.175.184-6.783 7.115 1.671 1.595s2.89-3.03 3.201-3.36l2.443 2.325.779-.818-2.442-2.324c.282-.295 1.92-2.014 2.2-2.306M55.156 170.818c-1.077-.767-2.366-1.073-3.631-.862-1.39.239-2.635 1.05-3.517 2.29-.885 1.245-1.24 2.689-1.004 4.072.212 1.269.925 2.389 2.003 3.153a4.868 4.868 0 0 0 3.65.86c1.38-.233 2.628-1.047 3.509-2.28.704-.994 1.075-2.12 1.075-3.235 0-.278-.024-.56-.07-.837-.215-1.267-.929-2.39-2.015-3.161m-.98 5.815c-.73 1.02-2.627 3.26-4.515 1.916-1.882-1.335-.388-3.86.338-4.887.728-1.026 2.626-3.262 4.505-1.926 1.889 1.348.4 3.875-.329 4.897zM66.137 177.444c-2.543-1.286-5.49-.216-6.855 2.486-.688 1.358-.824 2.836-.387 4.176.4 1.218 1.273 2.213 2.455 2.808 1.185.606 2.513.713 3.737.31 1.332-.44 2.443-1.425 3.13-2.783 1.363-2.701.47-5.712-2.08-6.997m-4.281 8.462c-2.06-1.036-.964-3.76-.395-4.879.568-1.124 2.109-3.62 4.164-2.576.548.274.913.681 1.087 1.214.404 1.233-.251 2.827-.679 3.674-.425.841-1.323 2.316-2.558 2.72-.528.179-1.075.125-1.62-.153zM73.253 181.254l-.291.826 1.799.633c-.16.451-2.964 8.448-2.964 8.448l2.18.766s2.806-7.996 2.963-8.45l1.8.629.375-1.062-5.781-2.03-.08.24M87.38 185.1l-4.139-.874-.055.251-2.023 9.624 4.223.886c1.073.225 1.967.113 2.658-.34.597-.39.998-1.012 1.162-1.786.042-.212.067-.414.067-.61 0-.843-.417-1.555-1.162-2.066.862-.248 1.48-.883 1.679-1.826.034-.147.054-.32.054-.518 0-.963-.507-2.329-2.464-2.742m-1.447.852c.696.147 1.178.413 1.423.792.14.215.21.467.21.76 0 .142-.018.29-.052.451-.269 1.282-1.304 1.268-1.9 1.138 0 0-.63-.13-.995-.207.085-.395.566-2.68.649-3.073.264.054.665.14.665.14zm-.318 4.296c1.176.247 1.361 1.175 1.361 1.738 0 .242-.038.415-.043.444-.118.556-.33.932-.656 1.142-.344.23-.84.274-1.467.144 0 0-.752-.161-1.156-.242l.735-3.485 1.226.259zM97.234 186.379l-4.814 9.853 1.387.103s1.019-2.141 1.153-2.415c.293.023 2.65.206 2.939.23.092.282.827 2.566.827 2.566l2.388.184-3.576-11.084-.304.563m-.529 3.962c.233.744.68 2.179.829 2.647-.476-.035-1.57-.12-2.041-.156l1.212-2.491zM107.775 195.508c-.019-.48-.373-8.813-.373-8.813l-.245.009-2.061.084.423 10.08 6.15-.26-.054-1.258s-3.395.143-3.84.158M118.371 194.482c-.076-.475-1.37-8.723-1.37-8.723l-.247.04-2.033.32 1.563 9.966 6.08-.96-.196-1.245s-3.362.529-3.797.602M141.722 185.906c-.036 1.313-.806 2.424-2.007 2.908a2.601 2.601 0 0 1-2.056-.018c-.94-.397-1.761-1.34-2.258-2.575-.56-1.412-.65-2.648-.26-3.572.305-.699.884-1.222 1.73-1.558 1.107-.443 2.123.062 2.983.573l.215.125.619-.971-.207-.14c-1.335-.874-2.984-1.057-4.403-.489-1.344.54-2.388 1.533-2.93 2.806-.556 1.29-.551 2.786.018 4.197 1.061 2.662 4.057 3.97 6.688 2.92 1.909-.765 2.944-2.15 3.083-4.125l.018-.255-1.218-.084-.014.258M149.603 183.756c-.237-.417-4.306-7.706-4.306-7.706l-.224.125-1.791 1.003 4.914 8.8 5.372-2.999-.61-1.101s-2.975 1.657-3.355 1.878M157.18 168.155l-.208.153-.823.605 4.251 5.792c.285.39.397.78.336 1.16-.101.69-.73 1.22-.993 1.409a1.938 1.938 0 0 1-1.382.33c-.448-.067-.816-.304-1.11-.699l-4.198-5.725-1.86 1.371 4.17 5.685c.562.767 1.247 1.219 2.034 1.335 1.242.188 2.408-.503 2.994-.93 2.012-1.48 2.039-3.33 1.17-4.508l-4.381-5.978M170.902 165.293c-.78-.807-1.779-.991-2.815-.593.082-.241.131-.488.131-.734 0-.599-.238-1.183-.718-1.676-.649-.668-2.33-1.493-4.049.179l-3.038 2.943 7.015 7.242 3.106-3.011c.783-.753 1.192-1.564 1.202-2.384.012-.716-.279-1.393-.834-1.966m-4.53-.314c0 .507-.33.923-.596 1.183 0 0-.466.453-.73.712-.283-.29-1.908-1.966-2.186-2.263.188-.182.485-.465.485-.465.95-.925 1.783-.986 2.548-.193.35.364.48.708.48 1.026zm1.932 5.255c-.287-.296-2.182-2.258-2.473-2.554.25-.24.9-.872.9-.872 1.237-1.193 2.492.071 2.545.13.39.402.582.784.582 1.163v.014c-.005.417-.247.852-.705 1.305.001 0-.603.581-.849.814z" style="fill:#fff"/><path d="M58.205 35.74 53.97 36.88l.486 1.517c.585 1.838.056 3.763-1.377 5.02-.798.699-1.718 1.02-2.733.95-1.543-.104-3.285-1.102-4.657-2.673-1.617-1.852-2.424-3.636-2.322-5.147.072-1.103.608-2.07 1.636-2.971 1.135-.995 2.576-.956 4.53-.569l1.448.287.937-4.055-1.459-.356c-3.136-.776-6.407-.013-8.74 2.03-4.57 3.998-4.943 10.528-.867 15.19 3.788 4.33 10.36 4.801 14.643 1.055 3.085-2.695 4.16-6.143 3.112-9.96l-.403-1.46M69.701 14.505l-4.324 2.036s2.414 5.116 3.244 6.88c-1.234.58-2.429 1.144-3.663 1.727l-3.249-6.88-5.694 2.688 8.672 18.394 5.699-2.687s-2.687-5.69-3.551-7.534c1.234-.577 2.428-1.142 3.665-1.724l3.55 7.53 5.698-2.69-8.67-18.389-1.377.649M88.98 25.9c-.277-1.37-.559-2.763-.833-4.13 1.76-.354 6.434-1.298 6.434-1.298l-.822-4.086-6.438 1.301c-.253-1.252-.463-2.304-.718-3.555 1.827-.368 6.83-1.38 6.83-1.38l-.825-4.083-1.496.3-11.508 2.328 4.023 19.935 13.11-2.65-.824-4.082s-5.093 1.026-6.932 1.4M107.575 8.196l-6.305-.13-.03 1.52-.395 18.81 13.234.278.094-4.405s-5.08-.109-6.937-.147l.339-15.926M128.004 18.452c-1.636-1.201-2.114-1.683-1.949-2.34.081-.34.452-1.426 1.627-1.135.706.182 1.41.554 1.723 2.075l.344 1.69 4.163-1.407-.26-1.311c-.511-2.574-2.688-4.765-5.42-5.448-1.958-.486-3.92-.226-5.53.742a6.35 6.35 0 0 0-2.929 3.936c-1.045 4.169 1.766 6.176 3.623 7.506 1.906 1.362 2.39 1.896 2.099 3.033-.091.356-.3.637-.628.835-.382.225-.86.306-1.25.204-1-.246-1.433-.719-1.855-2.013l-.511-1.552-4.177 1.708.405 1.326c.783 2.577 2.652 4.201 5.711 4.967 3.438.86 7.61-.72 8.649-4.849 1.084-4.35-1.877-6.53-3.835-7.967M143.044 29.298l5.857 2.961 1.88-3.718-5.855-2.959 1.63-3.237 6.22 3.143 1.876-3.718-11.837-5.982-.684 1.355-8.491 16.794 11.936 6.028 1.882-3.716s-4.638-2.343-6.314-3.187c.627-1.248 1.272-2.516 1.9-3.764M166.618 31.197l-18.967 9.815 3.628 3.155s3.131-1.664 4.269-2.262c.846.737 2.093 1.822 2.926 2.545-.409 1.21-1.568 4.613-1.568 4.613l5 4.35 8.108-23.913-3.396 1.697" style="fill:#dba111"/><path d="m57.494 36.977-2.236.608.164.505c.71 2.232.07 4.566-1.677 6.094-1.004.88-2.174 1.284-3.466 1.2-1.833-.122-3.781-1.222-5.354-3.021-1.798-2.059-2.69-4.095-2.572-5.887.093-1.361.76-2.594 1.983-3.664 1.606-1.405 3.629-1.148 5.395-.798l.485.093.489-2.119-.486-.121c-2.819-.692-5.744-.015-7.831 1.813-4.131 3.617-4.463 9.527-.77 13.754 3.42 3.908 9.345 4.337 13.213.958 2.805-2.46 3.747-5.459 2.797-8.924l-.134-.491M70.133 15.418l-3.402 1.609 3.24 6.876c-.727.345-4.768 2.252-5.502 2.595-.375-.8-3.238-6.878-3.238-6.878l-3.867 1.822 7.807 16.554 3.864-1.819s-3.17-6.718-3.55-7.531c.732-.345 4.768-2.247 5.501-2.594.38.811 3.551 7.533 3.551 7.533l3.86-1.823-7.807-16.557-.457.213M88.184 27.096c-.159-.795-1.073-5.325-1.232-6.12l6.433-1.3-.423-2.09s-5.584 1.123-6.436 1.296c-.154-.78-.96-4.765-1.115-5.544.853-.175 6.826-1.378 6.826-1.378l-.424-2.092-11.012 2.222 3.622 17.943 11.118-2.245-.423-2.092-6.934 1.4M106.537 9.192l-4.27-.093-.008.504-.378 17.798 11.207.237.05-2.375-6.936-.147c.022-.95.335-15.924.335-15.924M127.928 13.995c1.357.34 2.141 1.247 2.473 2.853l.116.562 2.227-.753-.085-.44c-.44-2.192-2.316-4.066-4.672-4.659-1.695-.423-3.383-.2-4.759.625a5.368 5.368 0 0 0-2.469 3.318c-.877 3.497 1.403 5.125 3.23 6.432 1.851 1.323 2.966 2.227 2.491 4.104a2.319 2.319 0 0 1-1.092 1.462 2.73 2.73 0 0 1-2.016.318c-1.35-.338-2.045-1.064-2.572-2.683l-.171-.517-2.311.942.134.444c.672 2.208 2.304 3.608 4.991 4.28 2.952.738 6.529-.598 7.41-4.114.919-3.685-1.5-5.469-3.459-6.9-1.662-1.227-2.665-2.047-2.324-3.402.3-1.212 1.303-2.261 2.858-1.871M146.109 20.983c.779.392 6.214 3.139 6.214 3.139l.967-1.907-10.025-5.065-.23.452-8.028 15.887 10.12 5.114.964-1.906s-5.525-2.793-6.307-3.19c.364-.725 2.45-4.844 2.811-5.57l5.856 2.958.969-1.906s-5.09-2.567-5.86-2.959c.358-.708 2.19-4.339 2.549-5.047M167.085 32.1l-17.638 9.129 1.97 1.714 4.27-2.264 3.97 3.455c-.188.557-1.573 4.608-1.573 4.608l3.347 2.91 6.815-20.096-1.161.545m-9.355 7.528c.834-.431 2.965-1.539 4.265-2.215-.483 1.382-1.281 3.658-1.587 4.543a673.807 673.807 0 0 0-2.678-2.328z" style="fill:#fff"/><path d="M154.777 101.99c-1.447-3.831-6.428-5.496-11.137-3.718-1.963.738-3.57 1.973-4.667 3.43 3.109-8.873 15.773-10.756 15.773-19.011 0-13.837-19.65-9.961-16.79.002 0-4.52 7.194-5.349 7.194 0 0 5.35-12.545 8.858-12.545 17.896 0 9.963 9.965 10.885 8.956 19.997-.171 1.571-1.86 3.636-4.307 3.636-15.262 0-9.814-18.789-15.147-24.506l.279-3.86c3.083 1.89 11.262-2.539 5.878-9.29 0 3.32-6.914 3.136-6.914-3.136 0-8.488 7.935-4.059 8.32-2.185-.38-3.09-.523-5.052-.013-6.833-4.278 1.38-4.678-1.094-4.137-2.05.62-1.107 1.449-2.4 3.116-2.4.9 0 1.441.126 1.76.346.532.364.922-.468.846.306.458-.697.274.173.716-.526.45-.694 1.056-1.479 2.12-2.524l-.045-1.566 1.246.457 1.196-1.935c-1.29-2.677-3.043-1.388-4.333-4.707-1.08-.28-17.887 1.548-17.4-5.157-1.37 0-4.617.75-2.608 3.48-1.562.189-2.688-1.585-5.043 3.213 2.95-.553 1.423 2.745 1.423 3.683 0 6.08-8.094 5.977-8.094 3.13-1.95 1.895-.844 6.04 2.106 7.06 0 0-1.122 4.433-3.89 7.244-4.111-.164-10.706-.878-14.5-4.464-1.636-1.546-2.935-2.388-4.042-2.82v-2.01c1.62-.793 3.396-2.196 5.242-4.541 1.44-1.759 2.22-4.014 2.01-6.41-.027-.285-.07-.568-.12-.843-.015-.088-.037-.173-.057-.26a7.408 7.408 0 0 0-.143-.569c-.027-.092-.052-.186-.081-.278a8.077 8.077 0 0 0-.206-.555c-.031-.077-.053-.158-.09-.23a8.341 8.341 0 0 0-.34-.705c-.054-.094-.11-.182-.161-.268-.085-.14-.166-.28-.255-.415a18.81 18.81 0 0 0-.225-.322c-.078-.103-.161-.208-.242-.311-.09-.11-.177-.227-.273-.337a4.267 4.267 0 0 0-.2-.208c-.239-.265-.499-.511-.77-.747-.023-.019-.05-.044-.076-.064a8.831 8.831 0 0 0-.6-.464c-.17-.12-.345-.237-.526-.35-.011-.006-.022-.01-.03-.019a9.989 9.989 0 0 0-6.02-1.436c-5.308.423-9.253 4.858-8.81 9.907.345 3.934 3.246 7.076 7.019 8.078-1.324.739-2.442 1.165-2.694 1.165.042.027.096.058.156.097l.052.027c.05.033.112.067.174.1.015.01.034.018.05.027.084.043.172.088.27.135l.05.02c.087.04.176.083.27.12a7.023 7.023 0 0 0 .86.297c.041.01.084.02.119.03.115.03.232.057.352.086l.123.024c.153.027.312.054.472.074.014 0 .028.007.04.007v1.142c-.06.014-.113.02-.17.029-1.726.284-2.848.815-3.355 2.352-.504 1.543.014 2.1.822 3.183-.683 1.221-2.473 1.678-.137 4.375-.17 1.02.046 2.642 1.528 3.134.484.164.888.251 1.313.325l-.002 20.225c-1.48.784-2.209 1.761-2.613 2.672 0 0-1.187-2.636-1.108 2.585 1.349-1.046.818 1.212.818 1.212-1.837 2.38.496 2.25.496 2.25 1.582-1.58 1.26.717 1.26.717 0 2.8 1.137 3.896 1.146 3.9v15.41l-1.343.003.013 4.252 2.35-.004c-1.32.547-2.19 1.85-2.062 3.289.16 1.814 1.835 3.162 3.744 3.015 1.907-.154 3.324-1.744 3.161-3.563-.108-1.255-.94-2.279-2.07-2.75l2.168-.006-.009-4.251-1.293.006.002-13.67c.267.145.555.247.868.315.124.023.248.04.376.049.056.009.114.009.17.01-.348-1.797.726-2.988.726-2.988.55-.83 1.348-1.476 2.255-1.933 2.714-1.361 6.416-1.017 7.523 1.2 7.011-1.85 13.037-8.897 13.037-8.897l3.451 5.874c-7.317 2.447-23.256 16.303-12.192 21.102-.004 1.397-.191 11.764-6.84 10.94-9.574-1.179-11.961 2.783-10.123 7.236-.864 3.755 2.028 5.058 2.028 5.058-.434-2.169.609-3.966 4.566-3.943-.02 3.957 2.535 4.67 2.535 4.67.018-3.388 2.373-4.643 4.464-4.634-.015 2.792 3.229 3.853 3.229 3.853s-.822-3.217 2.844-3.853c9.283-1.617.565-11.164 14.681-13.795 0 0-7.03-1.06-7.03-4.902 0-3.498 6.364-5.89 8.554-5.89 4.493 8.584 9.374 8.652 10.653 8.713 1.99 2.223 1.323 9.713-1.549 9.566-10.515-.564-10.13 5.832-8.952 7.14-.134 2.483 1.797 3.917 1.797 3.917 0-2.661 2.532-3.41 5.78-3.234-.17 3.251 1.9 3.737 1.9 3.737.057-3.272 2.477-3.827 4.197-3.737-.126 2.293 2.15 2.968 2.15 2.968s-.224-2.91 2.84-2.91c5.811-.004-2.629-12.459 8.714-24.777-9.964 4.612-15.265-6.917-15.265-9.13 5.121 5.993 21.725 7.19 21.725-3.047 0-9.78-10.749-13.424-5.72-17.164 2.925-2.175 8.677 2.219 5.386 6.757 4.72-1.748 7.349-6.318 5.905-10.147m-63.687.308c-3.757 2.209-6.275 5.003-9.7 6.226-.52.182-.934.234-1.295.21V89.647c.908.085 3.262.408 6.015 1.546 2.727 1.488 2.727 4.563-.714 5.292 2.175 4.164 9.708 2.125 11.35-1.267.804-.07 1.515 1.365 2.183 2.722-1.057.55-3.22 1.64-7.84 4.36zm42.044-31.643c-.413.56-.82 1.118-1.177 1.595a4.957 4.957 0 0 0 4.709 2.392 4.953 4.953 0 0 0 4.461-5.382c-.014-.099-.028-.188-.04-.284-.292 1.406-1.95 2.597-4.058 2.792-1.597.15-3.042-.308-3.895-1.113z" style="fill:#d1d3d4"/><path d="M72.442 59.168c0 .003-.007.01-.007.016h-.002a3.909 3.909 0 0 1 .009-.016m.173 80.062c.004-.003.011-.003.013-.008h-.001c-.003.006-.007.006-.012.008zm-.12-88.212h.006-.005zM71.06 138.76l2.35-.003a3.28 3.28 0 0 0-.782.465c.233-.09.48-.144.743-.144a2.132 2.132 0 1 1 0 4.266 2.115 2.115 0 0 1-2.022-1.492v.193c.161 1.819 1.833 3.168 3.744 3.01 1.905-.148 3.321-1.743 3.164-3.557-.111-1.25-.941-2.275-2.072-2.746l2.167-.01-.01-4.251-1.293.007v-13.671a3.296 3.296 0 0 1-1.711-3.552c.809 0 1.532.21 2.017.542-.747 1.643 1.11 3.384 1.11 3.384-.347-1.796.724-2.985.724-2.985.556-.831 1.353-1.48 2.256-1.937 2.717-1.362 6.417-1.018 7.524 1.198 7.012-1.846 13.038-8.897 13.038-8.897l3.453 5.87c8.094 0 5.277-6.06 4.748-6.589 1.863 0 4.484 1.371 4.484 4.407 0 7.454-21.671 8.516-21.671 17.565 0 3.799 3.765 5.244 3.765 5.244 0 8.25-5.664 13.15-9.54 13.15-6.196 0-10.94-1.254-10.94 5.502h2.16c-2.052 2.052-.137 5.062-.137 5.062-.433-2.167.614-3.96 4.57-3.941h2.468c-1.569 1.567-.652 3.947.07 4.673.013-3.393 2.365-4.647 4.46-4.635h1.791c-.487.48.296 2.711 1.44 3.85 0 0-.827-3.214 2.844-3.85 9.279-1.617.56-11.164 14.676-13.798 0 0-7.024-1.057-7.024-4.904 0-3.492 6.36-5.889 8.547-5.889 1.723-.246 3.365-.184 4.771.118.572 5.541 6.934 5.272 8.32 5.272 5.398 5.399-1.372 14.064-1.372 14.064-8.284 0-11.562 1.143-11.562 5.967h1.568c-.879.883-.38 3.312.225 3.917 0-2.663 2.536-3.406 5.783-3.235h1.708c-.833.832-.686 2.857.196 3.736.049-3.272 2.472-3.827 4.195-3.736h1.423c-.533.538 0 2.244.73 2.975 0 0-.225-2.913 2.837-2.916 5.814 0-2.631-12.46 8.718-24.777-9.963 4.615-15.268-6.918-15.268-9.13 5.122 5.994 21.729 7.19 21.729-3.044 0-8.258-7.66-12.139-7.026-15.399a4.886 4.886 0 0 1 9.755.44 4.88 4.88 0 0 1-3.063 4.535c.004 0 .004-.005.004-.005-.004.005-.01.01-.01.02 4.715-1.75 7.348-6.32 5.91-10.15-1.451-3.83-6.432-5.499-11.138-3.722-1.97.743-3.573 1.973-4.668 3.434 3.104-8.873 15.77-10.753 15.77-19.012 0-13.837-19.65-9.96-16.791.004 0-.15.009-.297.027-.441.501-5.632 10.569-6.783 10.569.558 0 6.272-12.894 9.749-12.894 18.187 0 8.667 9.525 10.835 9.525 19.955 0 1.086-.575 5.763-6.901 5.763-6.106 0-9.04-3.413-10.708-7.866-3.11-6.008-1.967-15.386-5.469-19.136l.278-3.857c3.085 1.893 11.267-2.54 5.892-9.291 0 3.323-6.919 3.135-6.919-3.135 0-8.487 7.93-4.058 8.316-2.186-.38-3.089-.53-5.056-.009-6.83-4.282 1.375-4.676-1.095-4.143-2.055.627-1.109 1.455-2.399 3.118-2.399 2.405 0 2.253.883 2.126 2.126.919-1.389 1.18-2.433 3.317-4.523l-.046-1.57 1.24.462 1.206-1.938c-1.29-2.677-3.042-1.382-4.338-4.704-1.074-.282-15.206-1.586-14.717-8.293-1.25 0-4.655 4.312-2.351 6.62H109.1c-1.57.185-5.232-.91-7.582 3.886 5.787-5.785 9.543 8.017-1.115 8.017v-.002c-1.573.004-2.922-.651-3.013-1.76-1.062 4.658 5.652 6.108 5.652 6.108 0 1.384-3.363 8.878-4.998 10.51 1.102 1.102 1.445 7.756-3.65 7.756 1.837-4.967-3.565-9.176-8.812-11.96h.007a15.09 15.09 0 0 1-2.693-1.328c-3.221-1.472-5.84-2.3-5.84-2.3v-3.894c1.62-.795 3.397-2.198 5.243-4.543 1.442-1.757 2.217-4.012 2.007-6.409a6.972 6.972 0 0 0-.122-.845c-.013-.087-.033-.17-.051-.257a7.849 7.849 0 0 0-.145-.568 8.905 8.905 0 0 0-.287-.837c-.032-.078-.058-.151-.09-.228a9.844 9.844 0 0 0-.343-.701c-.048-.097-.108-.184-.158-.276-.085-.138-.168-.275-.256-.41-.074-.107-.147-.217-.226-.324-.078-.103-.157-.209-.24-.307a6.052 6.052 0 0 0-.275-.34 4.664 4.664 0 0 0-.197-.211 9.035 9.035 0 0 0-.77-.74c-.028-.022-.05-.052-.078-.071a7.474 7.474 0 0 0-.474-.368c-.044-.028-.084-.064-.126-.094a9.904 9.904 0 0 0-.527-.349c-.01-.005-.021-.013-.031-.017a9.969 9.969 0 0 0-6.02-1.439c-.474.038-.936.123-1.387.22-3.056 1.17-5.28 4.748-5.28 8.982 0 3.99 1.978 7.393 4.76 8.75.038.011.078.026.118.036-1.326.739-2.444 1.165-2.698 1.165.044.028.1.058.16.099a.748.748 0 0 1 .05.025c.053.03.109.062.176.098.016.009.031.018.05.024.08.042.172.092.268.14a.168.168 0 0 1 .05.022c.083.04.174.076.272.116a7.883 7.883 0 0 0 .861.298 7.147 7.147 0 0 0 .468.113c.04.01.083.017.126.027.152.029.308.055.473.075a.06.06 0 0 1 .035.01c1.012.083 2.209-.168 2.209-.168v2.258c-.182 0-1.773-.513-2.209-.949a4.466 4.466 0 0 0-.17.03c-1.723.281-2.845.811-3.351 2.351-.504 1.543.013 2.1.822 3.183-.688 1.216-2.473 1.675-.141 4.375-.166 1.017.047 2.643 1.528 3.136.485.164.889.247 1.312.322.878 0 2.209.734 2.209 2.556v17.381c.8.046 1.667.154 2.455.222v-19.09c.907.087 3.264.41 6.013 1.543.031.016.056.033.083.051-.002-.002-.005-.002-.005-.004.251.031.506.085.759.16 1.83.564 2.97 2.152 2.542 3.559-.427 1.404-2.264 2.088-4.092 1.527 2.171 4.167 9.709 2.128 11.35-1.263.8-.072 1.513 1.365 2.183 2.72 0 0 1.887.723 6.563.723 0 0-18.928 12.085-24.403 12.085-2.34 0-7.527 0-7.527 1.769-1.426 0-3.482 2.422-3.482 3.807 1.349-1.051 2.447-1.051 2.447-1.051 1.149 0 1.796.343 1.796.343-.421.416-2.31 2.547-2.31 4.203 1.582-1.585 2.272-1.578 2.272-1.578s1.653-.213 2.242.379c-.398.395-1.095 1.828-1.095 3.524 0 0 .981-1.894 2.209-1.894v18.169c0 .555-2.507 1.088-3.54 1.088m.77-52.675c-.467.017-.688-.59-.692-.809-.012-.222.163-.84.63-.858 1.108-.038 3.326.494 3.335.713.009.216-2.165.913-3.273.954zm-.715-3c-.643-.045-.855-.914-.834-1.219.02-.3.359-1.13 1.001-1.084 1.535.115 4.51 1.185 4.485 1.488-.019.306-3.12.929-4.652.816zm-.264-3.841c-.681-.18-.737-1.154-.655-1.476.085-.321.612-1.143 1.296-.966 1.622.425 4.605 2.17 4.52 2.49-.083.32-3.537.377-5.161-.049zm5.027-10.827c.282-.672.222-1.59.047-2.455l-.088.002a3.534 3.534 0 0 1-3.534-3.532c-.03-.334.018-.657.13-.954h.002c0-.007.004-.014.007-.016a3.535 3.535 0 0 1 3.396-2.567 3.538 3.538 0 0 1 3.534 3.537c-.001 2.253-1.587 4.327-3.494 5.986z" style="fill:#034694"/><path d="M128.918 69.21a4.942 4.942 0 0 0 9.167-2.993c-.01-.096-.028-.188-.04-.285-.289 1.405-1.954 2.6-4.059 2.795-1.6.15-3.044-.31-3.896-1.114-.41.563-.823 1.12-1.172 1.597" style="fill:#ed1c24"/><path d="m122.319 60.045 1.706.09-.854 1.172s-1.14.36-.852-1.262m-4.072 0h2.46s-.09 1.985 1.706 2.162l-.381.632s-4.826-1.26-3.785-2.794z" style="fill:#fff"/><path d="M76.013 76.998c.085-.32-2.897-2.065-4.52-2.49-.684-.177-1.21.645-1.295.966-.083.322-.027 1.297.654 1.476 1.624.425 5.079.37 5.161.048m-.244 2.978c.025-.303-2.95-1.373-4.485-1.488-.642-.047-.98.784-1.001 1.084-.022.305.19 1.174.834 1.22 1.532.113 4.632-.51 4.652-.816zm-3.378-8.978v1.14c.436.437 2.027.95 2.209.95v-2.259s-1.196.252-2.209.17zm-.623 11.126c-.465.018-.64.636-.629.858.004.22.226.827.692.809 1.109-.04 3.282-.738 3.273-.955-.01-.218-2.227-.75-3.336-.712zm-2.282 30.107c-1.835 2.377-.514 4.546-.514 4.546 0-1.656 1.889-3.787 2.31-4.203 0 0-.647-.343-1.796-.343zm5.853 5.044a3.297 3.297 0 0 0 2.578 3.86c.131.03.254.047.381.061l.169.004s-1.858-1.74-1.111-3.383c-.485-.333-1.208-.543-2.017-.543zM71.98 68.75c-2.782-1.358-4.76-4.76-4.76-8.75 0-4.233 2.224-7.811 5.28-8.982-4.588 1.016-7.825 5.094-7.42 9.69.343 3.894 3.188 7.007 6.9 8.042zm29.536-9.765c2.953-.556 3.954 2.07 3.954 3.01 0 3.558-2.771 4.992-5.07 5.006v.002c10.66 0 6.903-13.803 1.116-8.018zm-7.124 30.629c5.094 0 4.752-6.653 3.65-7.756 1.634-1.633 4.998-9.126 4.998-10.51 0 0-6.723-1.45-5.65-6.115-.002-.003-.002-.005-.002-.009l-.09-.016c-1.832 1.933-.718 5.965 2.189 6.971 0 0-1.122 4.433-3.892 7.245-2.756-.108-6.62-.47-10.015-1.77 5.247 2.785 10.65 6.994 8.812 11.96zM74.494 57.672c1.318-.106 2.477.828 2.59 2.087.11 1.252-.872 2.359-2.191 2.463-1.322.107-2.484-.827-2.59-2.084a3.535 3.535 0 0 0 3.535 3.532l.088-.002c.175.864.235 1.783-.047 2.455 1.906-1.658 3.492-3.732 3.492-5.986a3.535 3.535 0 0 0-6.938-.954c.31-.818 1.092-1.433 2.061-1.512zm37.539-2.572c-2.304-2.308 1.1-6.62 2.351-6.62-1.368 0-7.299 3.883-5.285 6.62h2.934zM82.355 93.44c1.827.562 3.664-.122 4.092-1.526.428-1.407-.712-2.995-2.542-3.558a4.637 4.637 0 0 0-.76-.16c2.644 1.507 2.613 4.53-.79 5.245zm-5.3-19.414s2.618.829 5.84 2.3a11.29 11.29 0 0 1-1.8-1.366c-1.635-1.545-2.935-2.387-4.04-2.815v1.881zm.993 33.68c5.475 0 24.403-12.085 24.403-12.085-4.675 0-6.563-.723-6.563-.723-1.056.55-3.222 1.637-7.839 4.356-3.757 2.211-6.275 5.007-9.7 6.228-.522.189-.936.233-1.294.213-.789-.068-1.656-.175-2.455-.223v-17.38c0-1.823-1.331-2.556-2.209-2.556v20.227c-1.48.785-2.21 1.76-2.61 2.672 0 0-2.822-.377-2.742 4.847 0-1.385 2.056-3.808 3.482-3.808 0-1.768 5.188-1.768 7.527-1.768zm47.215 27.981c-1.386 0-7.749.27-8.32-5.273-1.406-.302-3.048-.362-4.772-.117 4.498 8.584 9.38 8.653 10.658 8.718 1.989 2.218 1.322 9.708-1.55 9.557-10.515-.56-10.13 5.838-8.952 7.146 0-4.824 3.28-5.967 11.563-5.967 0 0 6.771-8.666 1.373-14.064zm2.163 20.713h-1.424c-.12 2.298 2.155 2.975 2.155 2.975-.731-.73-1.264-2.437-.731-2.975zm-13.306 3.236c-.605-.606-1.104-3.034-.225-3.918h-1.568c-.13 2.487 1.793 3.918 1.793 3.918zm31.388-79.866c0-7.343-10.071-6.19-10.568-.55.444-4.134 7.172-4.744 7.172.433 0 5.35-12.549 8.855-12.549 17.897 0 9.963 9.963 10.885 8.955 19.994-.17 1.577-1.86 3.637-4.306 3.637-5.245 0-8.052-2.226-9.682-5.371 1.667 4.453 4.601 7.866 10.707 7.866 6.327 0 6.901-4.676 6.901-5.762 0-9.12-9.524-11.288-9.524-19.956 0-8.44 12.894-11.916 12.894-18.188zM71.244 115.2c0 2.811 1.147 3.902 1.147 3.902 0-1.695.697-3.128 1.095-3.524-.589-.592-2.242-.379-2.242-.379zm72.771-15.543a4.886 4.886 0 0 0-4.87 4.452c.117-.599.516-1.181 1.296-1.764 2.928-2.177 8.669 2.208 5.394 6.74a4.881 4.881 0 0 0 3.064-4.537 4.888 4.888 0 0 0-4.884-4.89zM121.611 156.4h-1.707c-.175 3.248 1.903 3.737 1.903 3.737-.881-.88-1.029-2.905-.196-3.737zm-48.239-17.322c-.264 0-.51.055-.745.144a3.188 3.188 0 0 0-1.277 2.63 2.116 2.116 0 0 0 2.022 1.492 2.132 2.132 0 1 0 0-4.266zm11.996 15.772h-2.469c-.02 3.956 2.538 4.673 2.538 4.673-.721-.726-1.637-3.106-.07-4.673zm7.654-25.017c0-9.048 21.67-10.11 21.67-17.565 0-3.036-2.62-4.407-4.483-4.407.527.529 3.346 6.59-4.748 6.59-7.32 2.45-23.258 16.304-12.195 21.107-.005 1.392-.192 11.76-6.837 10.946-9.572-1.185-11.96 2.772-10.123 7.225 0-6.756 4.745-5.501 10.942-5.501 3.875 0 9.54-4.9 9.54-13.15 0 0-3.766-1.446-3.766-5.245zM74.6 135.379v-18.17c-1.228 0-2.209 1.894-2.209 1.894v15.501-.099l-1.342.004.012 1.957c1.032 0 3.54-.533 3.54-1.088zm3.73 23.412s-1.916-3.01.137-5.062h-2.16c-.867 3.76 2.023 5.062 2.023 5.062zm13.36-3.902h-1.792c-.014 2.792 3.23 3.85 3.23 3.85-1.143-1.138-1.926-3.37-1.439-3.85z" style="fill:#6a7ab5"/><path d="M179.755 83.968" style="fill:none"/><path d="m31.43 124.724-.118-.366-.052-.382c-.175-1.307-.49-3.74-2.37-4.176-.502-.117-1.021-.057-1.575.171.15-.578.133-1.102-.048-1.582-.693-1.801-3.146-1.778-4.463-1.76h-.388l-.381-.071c-1.294-.239-3.709-.69-4.7.964-.266.441-.372.953-.326 1.548-.502-.324-1.007-.469-1.517-.444-1.928.103-2.666 2.443-3.06 3.702l-.12.366-.18.34c-.631 1.16-1.803 3.311-.537 4.768.338.389.792.65 1.373.787-.459.38-.755.816-.885 1.313-.504 1.86 1.496 3.284 2.567 4.046l.314.232.27.274c.908.96 2.594 2.737 4.37 1.984.47-.202.859-.552 1.17-1.061.223.555.542.967.973 1.25 1.617 1.048 3.587-.412 4.646-1.19l.313-.23.348-.17c1.19-.57 3.407-1.623 3.24-3.544-.045-.516-.26-.99-.647-1.443.594-.035 1.085-.215 1.483-.538 1.502-1.213.72-3.538.3-4.788" style="fill:#fff"/><path d="M22.983 126.283c10.789 6.376 7.466-.636 7.229-1.672-.239-1.034-.33-8.79-7.229 1.672M22.305 127.879c-2.73 12.226 2.911 6.904 3.821 6.362.91-.547 8.259-3.033-3.821-6.362M20.573 127.731c-12.477 1.177-5.667 4.9-4.867 5.596.802.693 5.432 6.918 4.867-5.596M20.181 126.033c-4.98-11.5-6.416-3.874-6.83-2.894-.415.97-4.904 7.302 6.83 2.894" style="fill:#ed1c24"/><path d="m198.387 123.035-.178-.34-.122-.366c-.394-1.26-1.131-3.6-3.054-3.702-.516-.025-1.019.119-1.52.44.046-.592-.066-1.103-.326-1.545-.995-1.654-3.406-1.203-4.7-.964l-.385.07h-.386c-1.313-.017-3.767-.04-4.457 1.762-.188.48-.202 1.003-.055 1.581-.545-.227-1.065-.286-1.571-.17-1.877.434-2.2 2.868-2.366 4.175l-.058.382-.116.367c-.422 1.25-1.201 3.574.3 4.788.399.323.886.503 1.483.539-.385.453-.6.927-.645 1.442-.166 1.922 2.047 2.974 3.239 3.543l.344.17.313.23c1.063.78 3.034 2.24 4.646 1.192.437-.284.753-.696.973-1.251.314.509.7.86 1.174 1.062 1.774.752 3.462-1.025 4.369-1.985l.272-.273.31-.233c1.075-.762 3.073-2.185 2.571-4.045-.134-.499-.425-.933-.887-1.313.578-.138 1.034-.399 1.37-.788 1.268-1.457.098-3.608-.537-4.768" style="fill:#fff"/><path d="M188.85 125.141c-9.395-8.289-1.702-7.3-.645-7.392 1.053-.089 8.462-2.402.645 7.392M187.542 126.283c-10.789 6.376-7.473-.636-7.23-1.672.236-1.034.325-8.79 7.23 1.672M188.218 127.879c2.731 12.226-2.911 6.904-3.823 6.362-.909-.547-8.255-3.033 3.823-6.362M189.948 127.731c12.477 1.177 5.672 4.9 4.869 5.596-.798.693-5.434 6.918-4.87-5.596M190.336 126.033c4.983-11.5 6.416-3.874 6.833-2.894.412.97 4.901 7.302-6.833 2.894" style="fill:#ed1c24"/><path d="M192.76 126.392c-.012-.1-.044-.19-.058-.287 1.002-.736 2.084-1.524 2.084-1.524l-.104-.233-2.473.431a3.742 3.742 0 0 0-2.83-1.787c-.377-1.132-.753-2.286-.753-2.286l-.254.022s-.17 1.202-.343 2.38a3.722 3.722 0 0 0-1.88 1.2 3.928 3.928 0 0 0-.61 1.053c-1.22 0-2.509.004-2.509.004l-.054.252s1.202.585 2.312 1.129c.004.101-.01.201 0 .303a3.706 3.706 0 0 0 1.281 2.496c-.39 1.22-.828 2.581-.828 2.581l.215.13s1.012-1.048 1.913-1.973c.47.154.972.215 1.478.17.51-.039.994-.192 1.433-.42 1.045.753 2.223 1.605 2.223 1.605l.193-.166s-.668-1.263-1.263-2.393a3.746 3.746 0 0 0 .827-2.688" style="fill:#fff"/><path d="M188.83 124.514a2.16 2.16 0 0 0-1.504.783 2.184 2.184 0 0 0-.51 1.613 2.214 2.214 0 0 0 2.397 2.017 2.231 2.231 0 0 0 1.51-.784 2.214 2.214 0 0 0-1.891-3.629M21.673 125.141c9.398-8.289 1.7-7.3.646-7.392-1.058-.089-8.466-2.402-.646 7.392" style="fill:#ed1c24"/><path d="M25.23 126.746c1.119-.543 2.315-1.13 2.315-1.13l-.056-.251s-1.287-.004-2.51-.004a3.772 3.772 0 0 0-.607-1.054 3.722 3.722 0 0 0-1.882-1.2l-.338-2.38-.258-.02s-.374 1.152-.745 2.285a3.742 3.742 0 0 0-2.838 1.787l-2.476-.431-.098.233s1.08.788 2.08 1.524c-.015.098-.044.187-.055.286a3.738 3.738 0 0 0 .831 2.688c-.6 1.13-1.268 2.393-1.268 2.393l.198.166s1.176-.852 2.22-1.605c.439.23.922.377 1.431.42.51.046 1.01-.016 1.48-.17.9.925 1.91 1.973 1.91 1.973l.222-.13-.832-2.577a3.738 3.738 0 0 0 1.281-2.5c.011-.102-.005-.202-.005-.303" style="fill:#fff"/><path d="M23.197 125.297a2.157 2.157 0 0 0-1.506-.782 2.213 2.213 0 0 0-1.89 3.629 2.219 2.219 0 0 0 3.906-1.233 2.212 2.212 0 0 0-.51-1.614" style="fill:#ed1c24"/><path d="M23.046 73.003c-5.252-.928-10.282 2.598-11.21 7.85-.927 5.256 2.595 10.285 7.848 11.213 5.257.927 10.29-2.597 11.214-7.852.93-5.253-2.594-10.282-7.852-11.211" style="fill:#fff"/><path d="M25.237 80.323a16.702 16.702 0 0 1-.412-.266c-.794-.527-2.35-1.555-2.393-1.586-.215-.148-.425-.29-.632-.429a34.271 34.271 0 0 0-1.892-1.202 12.14 12.14 0 0 0-.66-.353c-.924-.467-1.81-.749-2.857-.841a8.589 8.589 0 0 0-2.075 2.138c2.407.869 4.757 2.26 9.649 5.3.28-.648 1.216-2.64 1.272-2.76M22.981 85.51c.098-.243.528-1.331.704-1.75-5.013-3.115-7.342-4.493-9.753-5.345a8.432 8.432 0 0 0-.838 2.184c1.377 1.89 5.066 3.747 9.887 4.912M22.438 77.597c1.878-1.11 4.01-.808 5.657-.247a8.524 8.524 0 0 0-2.222-2.024c-1.555-.31-3.703-.358-5.413 1 .622.366 1.264.792 1.978 1.27" style="fill:#ed1c24"/><path d="M14.948 86.566c.251.173.508.337.782.49.553.306 1.151.57 1.77.796.262.099.528.191.797.278.94.31 3.098.87 3.26.907.032-.083.84-2.082 1.148-2.842-3.738-.927-7.831-2.55-9.776-4.66a8.42 8.42 0 0 0 .134 2.852c.41.894 1.07 1.606 1.885 2.18M21.682 89.819l-.78-.201a48.806 48.806 0 0 1-2.304-.635c.389.829 1 1.475 1.652 1.974a8.486 8.486 0 0 0 2.566-.05 9.076 9.076 0 0 1-1.134-1.088M29.5 80.066a8.527 8.527 0 0 0-.704-1.666c-1.474-.657-3.718-1.3-5.678-.34l2.704 1.785c.563-.05 1.082-.066 1.556-.055.26.004.5.019.73.041.53.047.981.132 1.392.235M28.116 80.56c-.08 4.444-2.174 7.87-3.979 10.014 2.825-.982 5.054-3.416 5.61-6.561a8.48 8.48 0 0 0-.043-3.138 8.05 8.05 0 0 0-1.588-.314M19.785 75.95c1.265-1.115 2.76-1.492 4.138-1.523a7.824 7.824 0 0 0-1.078-.271 8.455 8.455 0 0 0-5.52.903c.87.17 1.655.475 2.46.891" style="fill:#ed1c24"/><path d="M25.925 80.565c-.643 1.34-1.021 2.16-1.335 2.906-.097.226-.19.445-.285.673l-.612 1.537-.275.683-1.194 2.957c.329.437.728.793 1.12 1.071 1.774-2.023 3.981-5.423 4.049-9.874-.447-.016-.938 0-1.468.047M17.703 88.69a15.595 15.595 0 0 1-1.75-.713c.209.648.511 1.223.816 1.717.636.408 1.335.73 2.081.96-.483-.544-.9-1.188-1.147-1.964M15.076 87.499a8.406 8.406 0 0 1-1.127-.807c.394.704.89 1.349 1.465 1.915a7.02 7.02 0 0 1-.338-1.108" style="fill:#ed1c24"/><path d="M178.575 84.214c.929 5.256 5.956 8.78 11.21 7.852 5.256-.927 8.777-5.956 7.854-11.212-.927-5.253-5.958-8.778-11.214-7.85-5.255.928-8.776 5.957-7.85 11.21" style="fill:#fff"/><path d="m184.235 80.323.416-.266c.794-.527 2.348-1.555 2.387-1.586l.637-.429a31.395 31.395 0 0 1 1.891-1.202c.224-.128.443-.247.657-.353.923-.467 1.815-.749 2.86-.841a8.44 8.44 0 0 1 2.069 2.138c-2.405.869-4.748 2.26-9.646 5.3-.281-.648-1.213-2.64-1.27-2.76M186.493 85.51c-.1-.243-.533-1.331-.7-1.75 5.005-3.115 7.34-4.493 9.75-5.345.372.671.654 1.404.837 2.184-1.379 1.89-5.068 3.747-9.887 4.912M187.036 77.597c-1.88-1.11-4.01-.808-5.66-.247a8.566 8.566 0 0 1 2.227-2.024c1.554-.31 3.7-.358 5.408 1-.617.366-1.264.792-1.975 1.27" style="fill:#ed1c24"/><path d="M194.521 86.566a8.518 8.518 0 0 1-.78.49c-.55.306-1.148.57-1.764.796-.265.099-.533.191-.802.278-.935.31-3.095.87-3.258.907-.036-.083-.847-2.082-1.147-2.842 3.736-.927 7.826-2.55 9.777-4.66a8.522 8.522 0 0 1-.136 2.852c-.412.894-1.07 1.606-1.89 2.18M187.793 89.819l.775-.201c.725-.184 1.514-.39 2.312-.635-.395.829-1.004 1.475-1.655 1.974a8.464 8.464 0 0 1-2.562-.05c.592-.465 1.13-1.088 1.13-1.088M179.974 80.066c.179-.58.408-1.142.708-1.666 1.47-.657 3.709-1.3 5.67-.34l-2.7 1.785a13.824 13.824 0 0 0-1.56-.055 9.099 9.099 0 0 0-.73.041 8.755 8.755 0 0 0-1.388.235M181.358 80.56c.077 4.444 2.177 7.87 3.984 10.014-2.833-.982-5.064-3.416-5.614-6.561a8.376 8.376 0 0 1 .044-3.138c.436-.137.964-.251 1.586-.314M189.691 75.95c-1.266-1.115-2.763-1.492-4.14-1.523a7.658 7.658 0 0 1 1.08-.271 8.449 8.449 0 0 1 5.517.903c-.866.17-1.654.475-2.457.891" style="fill:#ed1c24"/><path d="M183.55 80.565a78.338 78.338 0 0 1 1.34 2.906c.093.226.182.445.277.673.153.375.614 1.537.614 1.537l.274.683 1.196 2.957a5.106 5.106 0 0 1-1.12 1.071c-1.773-2.023-3.985-5.423-4.047-9.874.444-.016.937 0 1.466.047M191.771 88.69a15.998 15.998 0 0 0 1.753-.713 8.037 8.037 0 0 1-.821 1.717 8.479 8.479 0 0 1-2.078.96c.483-.544.9-1.188 1.146-1.964M194.4 87.499a8.854 8.854 0 0 0 1.125-.807 8.497 8.497 0 0 1-1.464 1.915c.134-.353.255-.719.34-1.108" style="fill:#ed1c24"/></svg>