<svg xmlns="http://www.w3.org/2000/svg" width="124.12534pt" height="256.48709pt" viewBox="0 0 124.12534 256.48709"><path d="M22.43 109.262c-.45-.102-.825-.371-1.13-.801-1.519 2.336-2.155 4.406-1.581 6.277 2.312 7.844 9.234 13.621 17.492 14.395-7.906-2.406-13.762-10.621-14.781-19.871m-1.625-4.606c-.5-.37-.926-.703-1.227-1.008a20.429 20.429 0 0 0-.687 6.149c.02.43.05.867.093 1.265.305-1.23.895-2.535 1.774-3.906-.164-.765-.145-1.668.047-2.5zm.398-1.207c.192-.469.473-.898.777-1.304.239-.262.524-.5.813-.7.746-3.508 2.309-6.61 4.621-8.98a20.226 20.226 0 0 0-7.457 9.95c.184.269.68.64 1.246 1.034zm29.7 18.035c-1.72-.199-4.005-.668-5.024-1-1.11-.406-2.106-1.34-2.649-2.507a5.33 5.33 0 0 1-.472-1.934c-.02-.469.031-.973.164-1.54-6.274-1.905-12.938-4.573-17.563-7.042a5.829 5.829 0 0 1-.566.836c-.352.394-.734.7-1.129.863a25.247 25.247 0 0 0 3.895 10.918c2.828 4.375 6.675 7.379 10.836 8.313 1.488.34 3.398.742 5.144.37a20.33 20.33 0 0 0 14.145-11.683c-.309.063-.641.098-.993.098-1.464 4.273-4.535 4.437-5.789 4.308zm8.452-13.328a20.345 20.345 0 0 0-1.292-6.37c-.946-2.474-4.067-4.177-8.172-5.118-7.575-1.73-17.563 1.105-23.895 6.445.234.973.164 2.145-.164 3.211 4.582 2.442 11.215 5.11 17.496 7.016 1.488-3.38 4.297-4.047 6.516-3.477 1.582.399 2.601.594 3.328.735l.824.168a4.014 4.014 0 0 1 2.504 1.937c.402.668.762 1.77.523 3.234.758-.035 1.13-.164 1.223-.265a19.653 19.653 0 0 0 1.11-7.516zm-3.582 7.781c.235-1.23-.03-2.097-.328-2.64-.383-.668-1.02-1.164-1.726-1.336l-.782-.168a48.702 48.702 0 0 1-3.402-.73c-2.144-.532-3.988.433-5 2.636 1.035.301 2.074.57 3.059.836.176-.77.218-1.336.218-1.336a.59.59 0 0 1 .637-.57.59.59 0 0 1 .59.637c0 .074-.047.668-.234 1.566.187.043.402.105.59.14.214.032.398.098.593.133.184-.867.305-1.605.305-1.636a.577.577 0 0 1 .684-.5c.359.062.562.37.523.699 0 .066-.121.805-.309 1.676.426.097.82.156 1.18.23.14-.773.164-1.336.164-1.367a.604.604 0 0 1 .664-.57c.324 0 .59.297.59.633 0 .035-.05.668-.191 1.468.847.133 1.558.2 2.175.2zm-11.433 1.536c.5 1.039 1.324 1.64 1.96 1.84.802.265 2.954.734 4.723.933 1.961.203 3.497-.867 4.368-3.07-.66-.035-1.364-.14-2.075-.235-.144.465-.308.903-.543 1.305-.164.266-.546.399-.824.23-.312-.203-.41-.57-.234-.867a5.58 5.58 0 0 0 .37-.836 12.267 12.267 0 0 1-1.163-.234c-.133.54-.277 1.008-.442 1.367a.615.615 0 0 1-.8.34c-.309-.172-.45-.5-.309-.84.121-.265.238-.668.352-1.097-.207-.036-.403-.098-.586-.141a4.351 4.351 0 0 0-.637-.125c-.117.324-.238.695-.402 1.098a.615.615 0 0 1-.805.3c-.305-.132-.473-.464-.332-.8.14-.301.234-.598.332-.903-1.031-.27-2.102-.566-3.188-.863a4.06 4.06 0 0 0 .235 2.598zm-20.281-15.36c-.282-.062-.825-.03-1.364.54-.855.933-1.254 2.202-1.187 3.738 0 .402.078.632.195.933.184.57.656.93 1.012 1.004.426.067.898-.172 1.324-.668.973-1.172 1.39-3.242.918-4.578-.215-.57-.516-.898-.898-.969" style="fill:#001957;fill-opacity:1;fill-rule:nonzero;stroke:none" transform="matrix(1.59382 0 0 1.59382 -1.279 -1.165)"/><path d="M303.398 1614.877c-79.296 0-97.968-40.704-97.968-40.704s91.406 6.68 91.406-83.828c0-40.468-21.992-68.164-45.625-97.226-27.11-34.024-58.008-72.461-58.008-136.836 0-106.875 68.672-156.68 129.102-201.055 52.695-38.36 102.46-74.766 102.46-143.242 0-68.828-30.234-121.914-43.906-135.898-23.125-23.125-43.906-27.11-60.703-30.743-17.265-3.36-33.476-6.68-36.758-31.445-63.593-38.008-102.07-105.781-102.07-179.648 0-2.97 0-5.625.274-8.672 2.109-56.094 26.171-107.852 67.265-145.899 41.29-38.047 94.922-57.422 150.899-55.43 55.937 2.383 107.89 26.407 145.937 67.462 38.008 41.367 57.5 94.843 55.156 150.898-3.242 85.547-57.578 159.648-138.047 189.023l.196-.312-1.172.664-1.914.352c-10.156 3.71-21.68 7.656-21.68 33.671 0 25.43 11.524 27.735 34.492 31.758 13.711 2.656 30.196 5.664 46.758 15.703 28.985 17.696 34.414 39.102 29.18 44.375-7.305 7.344-15.313-8.007-44.57-16.64-10.391-3.399-21.016-5.078-28.36-5.078-5.86 0-10.351.351-13.672 1.015 15.313 28.79 32.578 52.461 32.852 52.813l3.75 5-4.492 4.648c-5.899 5.703-9.375 18.047-9.375 34.727 0 20.703 5.117 47.46 17.46 76.836 14.102 34.375 71.016 146.914 201.094 146.914h7.305v7.304c0 46.758-4.219 89.493-12.5 127.305l-1.64 7.305s-12.774-3.36-23.165-5.703c-1.367-.313-11.093-2.618-11.484-.625-.508 1.64 6.992 5.703 9.844 6.992 9.648 4.648 22.187 10.039 22.187 10.039l-1.836 5.976c-9.258 32.383-18.476 47.774-18.906 48.438l-3.086 5-5.43-1.68c-108.632-34.414-131.796-106.133-145.43-149.219-6.835-21.054-11.093-32.773-18.71-32.773-22.188 0-40.781 18.75-46.719 24.688-67.695 67.5-62.5 116.21-54.766 190.039 2.891 26.093 5.899 55.39 5.899 89.18 0 85.156-32.07 124.53-101.524 124.53" style="fill:#fff;fill-opacity:1;fill-rule:nonzero;stroke:#fff;stroke-width:3.43;stroke-linecap:butt;stroke-linejoin:miter;stroke-miterlimit:4;stroke-opacity:1" transform="matrix(.15938 0 0 -.15938 -1.279 257.656)"/><path d="M43.21 71.191c0 6.848-2.929 12.422-4.6 14.094-5.25 5.242-9.57 1.438-9.614 6.68-2.363 2.172-4.082 5.406-4.91 9.152.05 0 .09.031.144.031.493.098.918.368 1.25.801 6.633-5.41 16.88-8.25 24.692-6.476 2.476.566 4.582 1.468 6.183 2.867a20.417 20.417 0 0 0-10.406-8.446c-1.035-.367-2.855-.769-2.855-4.105 0-6.246 6.82-1.41 11.312-8.187.227-.329-.097-.63-.36-.36-1.347 1.328-4.694 2.266-6.472 2.266-1.765 0-2.433-.403-2.433-.403 1.68-3.308 3.757-6.14 3.757-6.14-4.18-4.176 2.856-27.113 21.438-27.113 0-5.344-.563-9.489-1.254-12.59-.418.133-3.941.933-4.102.199-.144-.637 2.594-2.07 3.516-2.5-.898-3.211-1.816-4.68-1.816-4.68-15.938 5.008-12.727 18.196-16.63 18.196-2.523 0-4.503-1.97-5.21-2.672-9.52-9.512-5.074-15.82-5.074-28.45 0-8.546-3.313-11.714-9.426-11.714-6.09 0-8.29 2.632-8.29 2.632s8.384.27 8.384 9.082c0 9.188-10.364 11.723-10.364 23.407 0 19.437 23.14 19.07 23.14 34.43M32.185 13.354a13.27 13.27 0 0 0-.352-3.07s1.816-.101 1.816-2.332c0-1.808-1.203-3.078-1.535-3.078-.261 0-.336.305-.894.305-1.39 0-1.516-1.774-1.516-1.774.215-.031.426-.031.637-.031 3.992 0 7.68 1.2 7.68 9.98 0 3.239-.313 6.11-.57 8.653-.286 2.5-.52 4.844-.446 7.11 0 0-6.941-.798-6.941-6.013 0-3.402 2.12-4.242 2.12-9.75zm-9.754 95.907c-.45-.102-.825-.371-1.13-.801-1.519 2.336-2.155 4.406-1.581 6.277 2.312 7.844 9.234 13.621 17.492 14.395-7.906-2.406-13.762-10.621-14.781-19.871zm-1.625-4.606c-.5-.37-.926-.703-1.227-1.008a20.429 20.429 0 0 0-.687 6.149c.02.43.05.867.093 1.265.305-1.23.895-2.535 1.774-3.906-.164-.765-.145-1.668.047-2.5zm.398-1.207c.192-.469.473-.898.777-1.304.239-.262.524-.5.813-.7.746-3.507 2.309-6.61 4.621-8.98a20.226 20.226 0 0 0-7.457 9.95c.184.269.68.64 1.246 1.034zm29.7 18.035c-1.72-.199-4.005-.668-5.024-1-1.11-.406-2.106-1.34-2.649-2.507a5.352 5.352 0 0 1-.472-1.934c-.02-.469.031-.973.164-1.54-6.274-1.905-12.938-4.573-17.563-7.042a5.584 5.584 0 0 1-.566.832c-.352.398-.734.703-1.129.867a25.247 25.247 0 0 0 3.895 10.918c2.828 4.375 6.675 7.379 10.836 8.313 1.488.34 3.398.742 5.144.37a20.33 20.33 0 0 0 14.145-11.683c-.309.063-.641.098-.993.098-1.464 4.273-4.535 4.437-5.789 4.308zm7.16-19.699c-.946-2.472-4.067-4.176-8.172-5.117-7.575-1.73-17.563 1.102-23.895 6.445.234.973.164 2.145-.164 3.207 4.582 2.446 11.215 5.114 17.496 7.02 1.488-3.38 4.297-4.047 6.516-3.477 1.582.395 2.601.594 3.328.735l.824.168a4.014 4.014 0 0 1 2.504 1.937c.402.668.762 1.77.523 3.234.758-.035 1.13-.164 1.223-.265a19.653 19.653 0 0 0 1.11-7.516 20.345 20.345 0 0 0-1.294-6.37ZM44.34 117.473c.5 1.039 1.324 1.64 1.96 1.84.802.265 2.954.734 4.723.933 1.961.203 3.497-.867 4.368-3.07-.66-.035-1.364-.14-2.075-.235-.144.465-.308.903-.543 1.305-.164.266-.546.399-.824.23-.312-.203-.41-.57-.234-.867a5.58 5.58 0 0 0 .37-.836 12.267 12.267 0 0 1-1.163-.234c-.133.54-.277 1.008-.442 1.367a.615.615 0 0 1-.8.34c-.309-.172-.45-.5-.309-.84.121-.265.238-.668.352-1.097-.207-.036-.403-.098-.586-.141a4.351 4.351 0 0 0-.637-.125c-.117.324-.238.695-.402 1.098a.615.615 0 0 1-.805.3c-.305-.132-.473-.464-.332-.8.14-.301.234-.598.332-.903-1.031-.27-2.102-.566-3.188-.863a4.06 4.06 0 0 0 .235 2.598zm11.433-1.535c.235-1.231-.03-2.098-.328-2.641-.383-.668-1.02-1.164-1.726-1.336l-.782-.168a48.702 48.702 0 0 1-3.402-.73c-2.144-.532-3.988.433-5 2.636 1.035.301 2.074.57 3.059.836.176-.77.218-1.336.218-1.336a.59.59 0 0 1 .637-.57.59.59 0 0 1 .59.637c0 .074-.047.668-.234 1.566.187.043.402.106.59.14.214.032.398.098.593.133.184-.867.305-1.605.305-1.636a.577.577 0 0 1 .684-.5c.359.062.562.37.523.699 0 .066-.121.805-.309 1.676.426.097.82.156 1.18.23.14-.773.164-1.336.164-1.37a.603.603 0 0 1 .664-.567c.324 0 .59.297.59.633 0 .035-.05.668-.191 1.468.847.133 1.558.2 2.175.2zM24.06 102.112c-.282-.062-.825-.03-1.364.54-.855.933-1.254 2.202-1.187 3.738 0 .402.078.632.195.933.184.57.656.93 1.012 1.004.426.067.898-.172 1.324-.668.973-1.172 1.39-3.242.918-4.578-.215-.57-.516-.898-.898-.969" style="fill:#001957;fill-opacity:1;fill-rule:nonzero;stroke:none" transform="matrix(1.59382 0 0 1.59382 -1.279 -1.165)"/><path d="M81.25 356.947c15.586-10.274 32.11-19.336 32.11-19.336l-5.938-15.04c-2.149 9.024-11.055 14.024-22.617 21.056L47.03 288.822c-4.726-6.68-13.75-20.977-14.414-26.68 0 0-6.445 3.985-12.07 8.047a368.797 368.797 0 0 1-11.524 8.672c5.665 1.289 15.508 15.664 21.446 23.75l36.836 52.734c-13.907 10.664-19.375 12.696-29.063 12.97l13.281 10.038s12.461-10.039 29.727-21.406M681.68 171.322l1.133-1.328c-.899 0-1.915-.352-3.086-.977l3.359-6.367c.664-1.328 1.64-3.008 2.11-3.398 0 0-.743-.313-1.446-.625-.664-.352-1.328-.625-1.328-.625 0 .625-.313 1.25-1.25 3.32l-3.477 6.601c-1.25-.586-2.382-1.25-2.89-2.304l-.274 1.992s1.719.703 3.633 1.719c2.11 1.289 3.516 1.992 3.516 1.992" style="fill:#fff;fill-opacity:1;fill-rule:nonzero;stroke:#fff;stroke-width:3.43;stroke-linecap:round;stroke-linejoin:round;stroke-miterlimit:4;stroke-opacity:1" transform="matrix(.15938 0 0 -.15938 -1.279 257.656)"/><path d="M10.578 140.285c-2.617-1.238-2.973-4.137-1.672-6.883 1.297-2.699 3.774-4.242 6.39-3.007 2.626 1.273 2.977 4.144 1.68 6.882-1.296 2.703-3.757 4.27-6.398 3.008m4.344-9.086c-1.672-.804-2.996 1.102-4.016 3.176-.984 2.102-1.652 4.332.055 5.14 1.672.801 2.992-1.105 4.016-3.21.984-2.063 1.62-4.305-.055-5.106" style="fill:#fff;fill-opacity:1;fill-rule:nonzero;stroke:none" transform="matrix(1.59382 0 0 1.59382 -1.279 -1.165)"/><path d="M105.781 221.048c-26.172 12.383-29.726 41.368-16.719 68.829 12.97 26.992 37.735 42.421 63.907 30.078 26.25-12.735 29.765-41.446 16.797-68.828-12.97-27.032-37.578-42.696-63.985-30.079m43.438 90.86c-16.719 8.047-29.961-11.016-40.156-31.758-9.844-21.016-16.524-43.32.546-51.406 16.72-8.008 29.922 11.054 40.157 32.11 9.843 20.624 16.21 43.046-.547 51.054zm0 0" style="fill:none;stroke:#fff;stroke-width:3.43;stroke-linecap:round;stroke-linejoin:round;stroke-miterlimit:4;stroke-opacity:1" transform="matrix(.15938 0 0 -.15938 -1.279 257.656)"/><path d="M223.594 291.869c17.773-5 32.344-8.32 32.344-8.32l-1.641-16.016c-4.727 6.68-6.875 8.672-22.227 12.304l-18.398-61.796c-1.406-5.625-8.711-27.344-6.367-31.368 0 0-5.157 1.368-13.438 3.36-9.18 2.656-13.71 4.297-13.71 4.297 4.96 3.398 10.898 21.718 12.734 29.14l18.71 62.383c-15.82 4.961-19.374 5.703-26.913 1.992l8.906 13.672s10.39-4.297 30-9.648M297.031 275.19c17.461-2.696 34.024-4.024 34.024-4.024l.703-16.016c-6.68 6.016-8.945 7.695-26.485 10l-9.882-63.71c-.704-5.704-4.493-27.813-1.641-31.446 0 0-5.938.625-14.453 1.64-8.242 1.407-13.36 2.344-13.36 2.344 3.985 3.36 7.461 24.375 8.204 30.078l10.156 64.453c-14.883 2.97-18.164 1.68-25.274-2.382l6.602 15.039s13.945-3.32 31.406-5.977M361.953 214.72l-1.172-42.734c22.422-.352 37.774 1.367 44.61 11.016l-3.477-19.375s-12.344-.313-30.508 0c-20.039.312-35.625 1.328-35.625 1.328 3.281 3.36 3.985 24.414 3.985 30.117l1.914 42.031c0 11.016 1.172 29.024-2.618 33.086 16.329-1.406 14.141-1.406 29.063-1.68 19.57-.976 30.703-.351 30.703-.351l2.344-15.977c-7.578 6.29-19.18 6.953-37.774 7.266l-.937-35.977h28.555c2.578 0 2.851-1.718 2.851-4.375 0-3.047 0-4.375-2.851-4.375h-29.063M487.344 202.064c1.64-15.664 3.047-26.719 6.601-28.71-.742-1.72-3.554-4.024-7.304-4.337-4.532-.351-7.813 1.602-11.094 5.274l-50.781 58.476 1.914-37.031c.703-6.094 1.406-28.125 4.922-31.094l-16.954-.703c3.047 3.672 2.344 24.766 1.641 30.39l-2.383 42.11c-.703 5.664-1.64 29.063-5.43 31.719l15.626.625 51.836-61.758-4.18 35.39c-.742 6.055-3.75 27.11-7.344 30.079 0 0 1.875.312 8.32.976 6.368 1.055 8.477 1.328 8.477 1.328-2.89-3.632.469-25.351 1.21-31.015l4.923-41.719M582.734 224.095c1.641-7.382 5.391-26.054 10.625-29.453 0 0-8.007-2.304-13.007-3.945-4.258-1.328-13.907-3.711-13.907-3.711 2.344 4.062-2.89 26.094-4.257 31.758l-4.766 19.336-32.305-8.008 3.75-19.649c.977-6.367 4.297-27.734 8.711-30.39 0 0-4.414-1.055-13.867-2.735-8.008-1.601-13.477-2.617-13.477-2.617 2.344 3.985-.703 24.024-1.836 30.352l-7.89 41.719c-1.367 7.734-4.922 27.46-9.14 29.765 0 0 3.984.664 13.437 2.656 9.218 1.72 13.71 2.97 13.71 2.97-2.343-4.65 1.602-23.673 2.813-30.391l2.383-12.93 31.836 7.656-3.516 13.32c-1.914 7.344-5.703 24.375-10.117 27.735 0 0 4.18 1.289 13.242 3.672 8.711 2.656 12.422 3.984 12.422 3.984-1.64-4.648 3.32-21.719 5.235-30.039l9.921-41.055" style="fill:#fff;fill-opacity:1;fill-rule:nonzero;stroke:#fff;stroke-width:3.43;stroke-linecap:round;stroke-linejoin:round;stroke-miterlimit:4;stroke-opacity:1" transform="matrix(.15938 0 0 -.15938 -1.279 257.656)"/><path d="m64.172 137.512-3.164 1.234.125 1.734c.074.602.074 1.141.183 1.438.075.14.192.266.29.297 0 0-.333.137-.872.305-.55.167-.836.27-.836.27.188-.337.239-.774.22-1.337l-.29-8.219c-.02-.296-.047-.566-.164-.796a.9.9 0 0 0-.328-.407c.348-.23.8-.496 1.273-.695.707-.305 1.016-.305 1.563.332l4.601 5.742c.852 1.067 1.582 1.809 2.075 1.973 0 0-.473.199-1.368.597-.87.403-1.468.633-1.468.633.05-.199.05-.398-.063-.695-.12-.305-.574-.84-.87-1.27l-.907-1.136m-.582-.668-2.79-3.875.188 4.87 2.602-.995" style="fill:#fff;fill-opacity:1;fill-rule:nonzero;stroke:none" transform="matrix(1.59382 0 0 1.59382 -1.279 -1.165)"/><path d="m641.719 248.783-31.64-12.344 1.25-17.344c.741-6.015.741-11.406 1.835-14.375.742-1.406 1.914-2.656 2.89-2.968 0 0-3.32-1.368-8.71-3.047-5.508-1.68-8.36-2.696-8.36-2.696 1.875 3.36 2.383 7.735 2.188 13.36l-2.89 82.187c-.196 2.969-.47 5.664-1.641 7.969-.703 1.992-2.344 3.398-3.282 4.063 3.477 2.304 8.008 4.96 12.735 6.953 7.07 3.046 10.156 3.046 15.625-3.32l46.015-57.423c8.516-10.664 15.82-18.086 20.743-19.726 0 0-4.727-1.992-13.672-5.977-8.711-4.023-14.688-6.328-14.688-6.328.508 1.992.508 3.985-.625 6.953-1.21 3.047-5.742 8.399-8.71 12.696l-9.063 11.367m-5.82 6.68-27.891 38.75 1.875-48.711zm0 0" style="fill:none;stroke:#fff;stroke-width:3.43;stroke-linecap:round;stroke-linejoin:round;stroke-miterlimit:4;stroke-opacity:1" transform="matrix(.15938 0 0 -.15938 -1.279 257.656)"/><path d="M773.71 278.51c-6.366-4.298-11.093-7.696-11.093-7.696-.469 6.367-12.539 21.719-16.015 26.406l-27.227 35.352 21.797-69.727c-.742-1.367-2.383-3.398-3.75-4.375-4.258-3.32-8.516-2.734-12.344.39l-51.719 42.657 18.243-33.008c4.218-8.71 12.695-26.093 18.632-27.734 0 0-3.515-1.953-8.007-4.336-4.493-1.992-7.383-3.32-7.383-3.32.976 4.96-7.305 19.375-12.227 28.71l-20.351 38.048c-5.86 11.406-12.735 23.046-18.36 25.078 4.453 2.304 5.625 2.968 11.992 5.976a239.95 239.95 0 0 1 10.196 5.352l58.086-49.414-22.89 70.078s3.32 2.031 8.944 6.055c5.899 3.671 11.094 7.695 11.094 7.695.43-6.367 12.5-22.383 17.07-28.086l24.961-32.344c5.43-6.367 15.274-21.445 22.422-23.086 0 0-5.703-4.297-12.07-8.672M694.648 174.29l2.852-3.671c.938-.977 1.64-1.953 2.578-2.696 0 0-.703-.312-1.445-.937a5.842 5.842 0 0 1-1.133-.703c-.312 1.055-1.445 2.383-1.875 3.047l-3.047 4.023 2.578-8.047c-.312 0-.508-.351-.508-.351-.742-.586-1.132-.313-1.64 0l-5.938 4.687 2.383-3.71c.469-.977 1.367-2.618 2.344-2.97 0 0-.43-.312-.977-.625-.39-.351-.898-.703-.898-.703 0 1.016-1.133 3.008-1.64 3.672l-2.384 4.336c-.703.977-1.64 2.344-2.343 2.656 0 0 .703.313 1.406.743.469.312 1.133.586 1.445.937l6.602-5.664-2.578 8.008c.195 0 .703.351 1.172.664.664.351 1.406.703 1.406.703 0-1.016 1.172-2.344 1.64-3.398M178.008 151.01c5.469-2.07 12.304-4.415 12.304-4.415-5.82-4.258-11.328-21.015-14.57-30.351l-13.75-37.422c-3.515-10.352-9.687-25.04-7.578-30.39 0 0-7.539 2.695-13.516 5-5.117 1.679-7.93 2.655-13.632 5.038 6.68 1.64 13.046 23.711 15.078 29.414l6.172 17.344-32.344 13.672-9.453-20.04c-3.086-6.991-10.352-22.733-8.711-27.733 0 0-5.664 2.382-13.985 6.015-9.843 4.688-12.03 6.055-12.03 6.055 6.874 3.281 11.132 14.648 16.327 25.625l16.953 37.773c5.704 12.657 10.899 24.024 10.43 31.407 0 0 3.047-1.993 11.367-5.704 6.875-2.968 10.157-4.375 13.828-6.015-5.39-1.914-12.656-20.977-16.445-29.375l-4.96-10.664 31.679-13.047 4.648 12.07c2.344 6.016 10.157 24.336 8.516 30.703 0 0 6.68-2.343 13.672-4.96" style="fill:#fff;fill-opacity:1;fill-rule:nonzero;stroke:#fff;stroke-width:3.43;stroke-linecap:round;stroke-linejoin:round;stroke-miterlimit:4;stroke-opacity:1" transform="matrix(.15938 0 0 -.15938 -1.279 257.656)"/><path d="M21.46 159.453c-2.827-.734-3.726-3.476-2.972-6.312.754-2.875 2.88-4.778 5.688-4.043 2.816.734 3.73 3.476 2.976 6.312-.75 2.871-2.875 4.813-5.691 4.043m2.504-9.52c-1.79-.472-2.738 1.575-3.3 3.77-.595 2.203-.806 4.477 1.01 4.942 1.794.468 2.74-1.598 3.305-3.805.594-2.168.782-4.438-1.015-4.906" style="fill:#fff;fill-opacity:1;fill-rule:nonzero;stroke:none" transform="matrix(1.59382 0 0 1.59382 -1.279 -1.165)"/><path d="M214.61 29.369c-28.282 7.343-37.266 34.765-29.727 63.125 7.539 28.75 28.789 47.773 56.875 40.43 28.164-7.344 37.304-34.766 29.765-63.126-7.5-28.71-28.75-48.125-56.914-40.43m25.04 95.196c-17.891 4.727-27.383-15.742-33.008-37.695-5.938-22.031-8.047-44.766 10.117-49.414 17.93-4.688 27.383 15.976 33.047 38.047 5.937 21.68 7.812 44.375-10.157 49.062zm0 0" style="fill:none;stroke:#fff;stroke-width:3.43;stroke-linecap:round;stroke-linejoin:round;stroke-miterlimit:4;stroke-opacity:1" transform="matrix(.15938 0 0 -.15938 -1.279 257.656)"/><path d="M290.898 19.017s1.875 2.07 3.047 6.055c1.64 5.703 2.89 16.328 4.336 24.687l7.735 61.133c-16.797 1.992-20.977.664-28.32-3.633l6.796 15.625c5.274-1.015 16.797-2.304 30.938-4.297 9.453-1.015 37.578-3.71 37.578-3.71l1.172-15.704c-6.368 7.344-12.774 8.086-26.68 9.024l-8.008-61.094c-.742-5.703-3.75-25.742-.742-31.367-3.32.312-8.984.977-13.71 1.25-4.923.742-11.29 1.719-14.142 2.031M425 40.423c.234-18.32-14.688-31.68-37.54-31.367-17.89.313-27.343 7.656-30.897 10.664l3.75 17.344c5.468-10.976 14.687-19.023 25-19.336 10.898 0 19.375 6.367 19.609 16.992 0 7.696-4.258 12.383-22.149 22.07-17.46 8.633-23.828 17.696-23.828 31.094 0 17.97 15.743 27.305 34.22 27.305 13.67 0 23.124-4.297 29.022-7.305l-3.789-16.015c-8.28 11.015-15.82 15-24.804 15-8.75.39-15.117-4.649-15.117-13.711 0-9.961 11.093-15.352 25.78-23.711C421.212 60.11 425 50.423 425 40.423M508.828 96.869c.703-2.305 1.172-5 1.406-6.992 0-1.68.235-4.375 0-6.68-.468-6.055-3.242-13.047-7.968-17.774-7.11-7.656-16.602-11.328-28.868-11.64-4.726-.352-5.859 1.015-6.171 4.297l-.196 1.093s0 1.29.977 1.29h1.172c3.75.312 9.14 1.68 13.437 6.992 4.219 5.39 5.664 12.656 4.961 20.43-.742 7.968-3.32 13.632-8.75 17.968-4.726 3.711-10.156 4.688-15.82 4.375 0 0-2.344-.312-4.922-.664 0 0-1.445 0-1.172-1.68l6.094-63.125c.469-5.742 1.875-25.39 6.601-29.336 0 0-5.195-.742-15.117-1.406-7.5-.625-13.242-.625-13.242-.625 1.953 4.649 1.719 11.992 1.21 20.352l-4.92 49.765c-.47 5.977-1.446 25.313-6.173 30.391 0 0 12.54 1.68 35.86 3.984 12.07 1.016 21.992-.312 30.703-6.328 5.468-3.672 9.492-9.023 10.898-14.687M603.71 76.517c5-22.07-5.116-40.781-28.085-46.445-16.055-4.024-39.18 1.68-45.547 30.039l-8.008 33.047c-1.953 9.375-5.43 25.742-10.898 30.117 0 0 6.172.977 15.625 2.656 9.414 1.64 13.906 2.969 13.906 2.969-2.617-3.984 0-19.336 2.578-30.742l9.961-42.383c1.914-7.656 4.18-13.047 8.75-16.016 3.008-2.304 7.5-3.047 12.07-2.304 3.946.976 8.204 3.28 10.313 7.304 2.344 4.336 2.344 10.703.781 18.36l-11.406 42.11c-3.047 11.679-6.64 26.366-10.39 28.71 0 0 4.53 1.29 13.242 3.672 6.601 1.992 10.39 3.008 13.28 3.984-2.694-6.367 3.673-25.742 4.923-31.367l8.906-33.71M706.445 84.798c2.149-.625 4.532-1.289 6.563-.312-.196-1.29-1.602-4.375-3.75-6.367-9.18-9.649-17.89-7.969-20.781-6.68-16.016 6.055-42.5 29.727-43.672 32.11 0 0-.196.663.507.976l.938.313c4.023 2.03 8.75 6.718 10.625 11.015 3.047 6.758 2.617 12.383-.469 19.727-3.047 7.343-8.789 12.03-12.969 13.36-6.445 2.07-11.093.35-13.906-.665 0 0-3.828-1.68-4.96-2.695 0 0-.743-.664.234-3.243l20-57.539c3.086-8.28 8.32-25 13.28-27.695 0 0-5.468-2.305-13.67-5-8.321-3.008-13.243-4.687-13.243-4.687 1.64 6.68-4.805 24.023-6.367 29.101l-13.047 38.672c-3.32 9.375-9.14 26.094-13.946 28.711 0 0 9.532 2.695 30.743 11.758 11.328 4.648 22.422 6.68 32.343 3.984 6.094-1.953 10.118-5.039 13.438-9.687a53.731 53.731 0 0 0 3.047-5.703c.781-1.641 1.21-3.633 1.445-5.625 1.211-6.055.234-12.07-3.086-18.047 0 0-3.086-6.055-9.648-10.352 0 0 20.976-18.047 40.351-25.43" style="fill:#fff;fill-opacity:1;fill-rule:nonzero;stroke:#fff;stroke-width:3.43;stroke-linecap:round;stroke-linejoin:round;stroke-miterlimit:4;stroke-opacity:1" transform="matrix(.15938 0 0 -.15938 -1.279 257.656)"/><path d="M8.125 126.695c1.559 1.028 3.21 1.934 3.21 1.934l-.593 1.504c-.215-.903-1.105-1.403-2.262-2.106l-3.777 5.48c-.473.669-1.375 2.098-1.441 2.669 0 0-.645-.399-1.207-.805-.586-.46-1.153-.867-1.153-.867.567-.129 1.551-1.566 2.145-2.375l3.683-5.274c-1.39-1.066-1.937-1.27-2.906-1.296l1.328-1.004s1.246 1.004 2.973 2.14M68.168 145.258l.113.133a.683.683 0 0 0-.308.097l.336.637c.066.133.164.3.21.34l-.144.062a1.715 1.715 0 0 1-.133.063c0-.063-.031-.125-.125-.332l-.347-.66c-.125.058-.239.125-.29.23l-.027-.199s.172-.07.363-.172c.211-.129.352-.2.352-.2M10.578 140.285c-2.617-1.238-2.973-4.137-1.672-6.883 1.297-2.699 3.774-4.242 6.39-3.007 2.626 1.273 2.977 4.144 1.68 6.882-1.296 2.703-3.757 4.27-6.398 3.008m4.344-9.086c-1.672-.804-2.996 1.102-4.016 3.176-.984 2.102-1.652 4.332.055 5.14 1.672.801 2.992-1.105 4.016-3.21.984-2.063 1.62-4.305-.055-5.106M22.36 133.203c1.777.5 3.234.832 3.234.832l-.164 1.602c-.473-.668-.688-.867-2.223-1.23l-1.84 6.179c-.14.562-.87 2.734-.637 3.137 0 0-.515-.137-1.343-.336-.918-.266-1.371-.43-1.371-.43.496-.34 1.09-2.172 1.273-2.914l1.871-6.238c-1.582-.496-1.937-.57-2.691-.2l.89-1.367s1.04.43 3 .965M29.703 134.871c1.746.27 3.402.402 3.402.402l.07 1.602c-.667-.602-.894-.77-2.648-1l-.988 6.371c-.07.57-.45 2.781-.164 3.145 0 0-.594-.063-1.445-.164-.825-.141-1.336-.235-1.336-.235.398-.336.746-2.437.82-3.008l1.016-6.445c-1.489-.297-1.817-.168-2.528.238l.66-1.504s1.395.332 3.141.598M36.195 140.918l-.117 4.273c2.242.036 3.777-.136 4.461-1.101l-.348 1.937s-1.234.032-3.05 0a80.14 80.14 0 0 1-3.563-.132c.328-.336.399-2.442.399-3.012l.191-4.203c0-1.102.117-2.903-.262-3.309 1.633.14 1.414.14 2.907.168 1.957.098 3.07.035 3.07.035l.234 1.598c-.758-.629-1.918-.695-3.777-.727l-.094 3.598h2.856c.257 0 .285.172.285.438 0 .304 0 .437-.285.437h-2.907M48.734 142.184c.164 1.566.305 2.671.66 2.87-.074.173-.355.403-.73.434-.453.035-.781-.16-1.11-.527l-5.077-5.848.191 3.703c.07.61.14 2.813.492 3.11l-1.695.07c.305-.367.234-2.476.164-3.039l-.238-4.21c-.07-.567-.164-2.907-.543-3.173l1.562-.062 5.184 6.175-.418-3.539c-.074-.605-.375-2.71-.735-3.007 0 0 .188-.032.832-.098.637-.106.848-.133.848-.133-.289.363.047 2.535.121 3.102l.492 4.172M58.273 139.98c.164.739.54 2.606 1.063 2.946 0 0-.8.23-1.3.394-.427.133-1.391.371-1.391.371.234-.406-.29-2.609-.426-3.175l-.477-1.934-3.23.8.375 1.966c.097.636.43 2.773.87 3.039 0 0-.44.105-1.386.273-.8.16-1.348.262-1.348.262.235-.399-.07-2.402-.183-3.035l-.79-4.172c-.136-.774-.491-2.746-.913-2.977 0 0 .398-.066 1.343-.265a18.134 18.134 0 0 0 1.372-.297c-.235.465.16 2.367.28 3.039l.24 1.293 3.183-.766-.352-1.332c-.191-.734-.57-2.437-1.012-2.773 0 0 .418-.13 1.325-.367.87-.266 1.242-.399 1.242-.399-.164.465.332 2.172.523 3.004l.992 4.105M64.172 137.512l-3.164 1.234.125 1.734c.074.602.074 1.141.183 1.438.075.14.192.266.29.297 0 0-.333.137-.872.305-.55.167-.836.27-.836.27.188-.337.239-.774.22-1.337l-.29-8.219c-.02-.296-.047-.566-.164-.796a.9.9 0 0 0-.328-.407c.348-.23.8-.496 1.273-.695.707-.305 1.016-.305 1.563.332l4.601 5.742c.852 1.067 1.582 1.809 2.075 1.973 0 0-.473.199-1.368.597-.87.403-1.468.633-1.468.633.05-.199.05-.398-.063-.695-.12-.305-.574-.84-.87-1.27l-.907-1.136m-.582-.668-2.79-3.875.188 4.87 2.602-.995M77.371 134.54c-.637.429-1.11.769-1.11.769-.046-.637-1.253-2.172-1.6-2.641l-2.724-3.535 2.18 6.972c-.074.137-.238.34-.375.438-.426.332-.851.273-1.234-.04l-5.172-4.265 1.824 3.301c.422.871 1.27 2.61 1.863 2.773 0 0-.351.196-.8.434-.45.2-.739.332-.739.332.098-.496-.73-1.937-1.222-2.871l-2.035-3.805c-.586-1.14-1.274-2.304-1.836-2.508.445-.23.562-.296 1.199-.597.547-.27 1.02-.535 1.02-.535l5.808 4.941-2.29-7.008s.333-.203.895-.605c.59-.367 1.11-.77 1.11-.77.043.637 1.25 2.239 1.707 2.809l2.496 3.234c.543.637 1.527 2.145 2.242 2.309 0 0-.57.43-1.207.867M69.465 144.96l.285.368c.094.098.164.195.258.27 0 0-.07.03-.145.093-.066.032-.113.07-.113.07-.031-.105-.145-.238-.188-.304l-.304-.402.258.804c-.032 0-.051.036-.051.036-.074.058-.113.03-.164 0l-.594-.47.238.372c.047.098.137.262.235.297 0 0-.043.03-.098.062-.039.035-.09.07-.09.07 0-.101-.113-.3-.164-.367l-.238-.433c-.07-.098-.164-.235-.235-.266 0 0 .07-.031.141-.074.047-.031.113-.059.145-.094l.66.567-.258-.801c.02 0 .07-.035.117-.067.067-.035.14-.07.14-.07 0 .102.118.235.165.34M17.8 147.29c.548.206 1.231.44 1.231.44-.582.426-1.133 2.102-1.457 3.036l-1.375 3.742c-.351 1.035-.969 2.504-.758 3.039 0 0-.754-.27-1.351-.5a15.41 15.41 0 0 1-1.363-.504c.668-.164 1.304-2.371 1.507-2.941l.618-1.735-3.235-1.367-.945 2.004c-.309.7-1.035 2.273-.871 2.773 0 0-.567-.238-1.399-.601-.984-.469-1.203-.606-1.203-.606.688-.328 1.113-1.465 1.633-2.562l1.695-3.778c.57-1.265 1.09-2.402 1.043-3.14 0 0 .305.2 1.137.57.688.297 1.016.438 1.383.602-.54.191-1.266 2.097-1.645 2.937l-.496 1.067 3.168 1.304.465-1.207c.234-.601 1.016-2.433.852-3.07 0 0 .668.234 1.367.496M21.46 159.453c-2.827-.734-3.726-3.476-2.972-6.312.754-2.875 2.88-4.778 5.688-4.043 2.816.734 3.73 3.476 2.976 6.312-.75 2.871-2.875 4.813-5.691 4.043m2.504-9.52c-1.79-.472-2.738 1.575-3.3 3.77-.595 2.203-.806 4.477 1.01 4.942 1.794.468 2.74-1.598 3.305-3.805.594-2.168.782-4.438-1.015-4.906M29.09 160.488s.187-.207.305-.605c.164-.57.289-1.633.433-2.469l.774-6.113c-1.68-.2-2.098-.067-2.832.363l.68-1.562c.527.101 1.679.23 3.093.43.945.1 3.758.37 3.758.37l.117 1.57c-.637-.734-1.277-.808-2.668-.902l-.8 6.11c-.075.57-.376 2.574-.075 3.136-.332-.03-.898-.097-1.371-.125-.492-.074-1.129-.171-1.414-.203M42.5 158.348c.023 1.832-1.469 3.168-3.754 3.136-1.789-.03-2.734-.765-3.09-1.066l.375-1.734c.547 1.097 1.469 1.902 2.5 1.933 1.09 0 1.938-.637 1.961-1.699 0-.77-.426-1.238-2.215-2.207-1.746-.863-2.382-1.77-2.382-3.11 0-1.796 1.574-2.73 3.421-2.73 1.368 0 2.313.43 2.903.73l-.38 1.602c-.827-1.101-1.581-1.5-2.48-1.5-.875-.039-1.511.465-1.511 1.371 0 .996 1.109 1.535 2.578 2.371 1.695.934 2.074 1.903 2.074 2.903M50.883 152.703c.07.23.117.5.14.7 0 .167.024.437 0 .667-.046.606-.324 1.305-.796 1.778-.711.765-1.66 1.132-2.887 1.164-.473.035-.586-.102-.617-.43l-.02-.11s0-.128.098-.128h.117a1.875 1.875 0 0 0 1.344-.7c.422-.539.566-1.265.496-2.042-.074-.797-.332-1.364-.875-1.797-.473-.371-1.016-.47-1.582-.438l-.492.067s-.145 0-.118.168l.61 6.312c.047.574.187 2.54.66 2.934 0 0-.52.074-1.512.14-.75.063-1.324.063-1.324.063.195-.465.172-1.2.121-2.035l-.492-4.977c-.047-.598-.145-2.531-.617-3.039 0 0 1.254-.168 3.586-.398 1.207-.102 2.199.03 3.07.632.547.368.95.903 1.09 1.47M60.371 154.738c.5 2.207-.512 4.078-2.809 4.645-1.605.402-3.917-.168-4.554-3.004l-.801-3.305c-.195-.937-.543-2.574-1.09-3.011 0 0 .617-.098 1.563-.266.941-.164 1.39-.297 1.39-.297-.261.398 0 1.934.258 3.074l.996 4.239c.192.765.418 1.304.875 1.601.301.23.75.305 1.207.23.395-.097.82-.328 1.032-.73.234-.434.234-1.07.078-1.836l-1.141-4.21c-.305-1.169-.664-2.638-1.04-2.872 0 0 .454-.129 1.325-.367.66-.2 1.04-.3 1.328-.399-.27.637.367 2.575.492 3.137l.891 3.371M70.645 153.91c.214.063.453.13.656.031-.02.13-.16.438-.375.637-.918.965-1.79.797-2.078.668-1.602-.605-4.25-2.973-4.368-3.21 0 0-.02-.067.051-.099l.094-.03c.402-.204.875-.673 1.062-1.102.305-.676.262-1.239-.046-1.973-.305-.734-.88-1.203-1.297-1.336-.645-.207-1.11-.035-1.39.066 0 0-.384.168-.497.27 0 0-.074.066.023.324l2 5.754c.31.828.833 2.5 1.329 2.77 0 0-.547.23-1.368.5-.832.3-1.324.468-1.324.468.164-.668-.48-2.402-.637-2.91l-1.304-3.867c-.332-.937-.914-2.61-1.395-2.871 0 0 .953-.27 3.074-1.176 1.133-.465 2.243-.668 3.235-.398.61.195 1.012.504 1.344.969.12.199.21.367.304.57.078.164.121.363.145.562.12.606.023 1.207-.309 1.805 0 0-.308.606-.965 1.035 0 0 2.098 1.805 4.036 2.543" style="fill:#001957;fill-opacity:1;fill-rule:nonzero;stroke:none" transform="matrix(1.59382 0 0 1.59382 -1.279 -1.165)"/></svg>