<svg xmlns="http://www.w3.org/2000/svg" xmlns:xlink="http://www.w3.org/1999/xlink" width="296.14334" height="300"><defs><linearGradient id="d"><stop offset="0" style="stop-color:#ffe500;stop-opacity:1"/><stop offset="0.49999997" style="stop-color:#ffe500;stop-opacity:1"/><stop offset="1" style="stop-color:#e15007;stop-opacity:1"/></linearGradient><linearGradient id="c"><stop offset="0" style="stop-color:#da030e;stop-opacity:0"/><stop offset="0.875" style="stop-color:#da020e;stop-opacity:0"/><stop offset="1" style="stop-color:#da020e;stop-opacity:1"/></linearGradient><linearGradient id="b"><stop offset="0" style="stop-color:#740703;stop-opacity:1"/><stop offset="1" style="stop-color:#da020e;stop-opacity:0"/></linearGradient><linearGradient id="a"><stop offset="0" style="stop-color:#8f0904;stop-opacity:1"/><stop offset="0.24960083" style="stop-color:#b40509;stop-opacity:1"/><stop offset="1" style="stop-color:#da020e;stop-opacity:1"/></linearGradient><linearGradient xlink:href="#a" id="i" x1="476.06961" x2="476.06961" y1="403.81436" y2="458.88077" gradientUnits="userSpaceOnUse" spreadMethod="reflect"/><linearGradient xlink:href="#b" id="m" x1="368.06281" x2="399.48285" y1="470.93954" y2="507.00201" gradientUnits="userSpaceOnUse"/><linearGradient xlink:href="#b" id="n" x1="368.06281" x2="399.48285" y1="470.93954" y2="507.00201" gradientTransform="matrix(-1 0 0 1 957.358 0)" gradientUnits="userSpaceOnUse"/><linearGradient xlink:href="#b" id="o" x1="600.95312" x2="583.94867" y1="404.57532" y2="388.57532" gradientUnits="userSpaceOnUse"/><linearGradient xlink:href="#b" id="p" x1="600.95312" x2="582.94867" y1="404.57532" y2="385.57532" gradientTransform="matrix(-1 0 0 1 957.892 0)" gradientUnits="userSpaceOnUse"/><linearGradient xlink:href="#d" id="l" x1="357.73038" x2="362.27914" y1="346.82816" y2="351.82816" gradientUnits="userSpaceOnUse"/><linearGradient xlink:href="#d" id="t" x1="357.73038" x2="362.27914" y1="346.82816" y2="351.82816" gradientTransform="matrix(-1 0 0 1 957.892 0)" gradientUnits="userSpaceOnUse"/><radialGradient xlink:href="#c" id="v" cx="360.50748" cy="438.59348" r="18.755779" fx="360.50748" fy="438.59348" gradientTransform="matrix(1.04065 0 0 1.02368 -14.655 -10.386)" gradientUnits="userSpaceOnUse"/><radialGradient xlink:href="#c" id="w" cx="360.50748" cy="438.59348" r="18.755779" fx="360.50748" fy="438.59348" gradientTransform="matrix(1.04065 0 0 1.02368 223.001 -10.48)" gradientUnits="userSpaceOnUse"/><radialGradient xlink:href="#d" id="j" cx="446.41611" cy="291.62723" r="14.722825" fx="446.41611" fy="291.62723" gradientTransform="matrix(.81453 0 0 .77555 83.801 67.23)" gradientUnits="userSpaceOnUse" spreadMethod="pad"/><radialGradient xlink:href="#d" id="q" cx="446.41611" cy="291.62723" r="14.722825" fx="446.41611" fy="291.62723" gradientTransform="matrix(-.81453 0 0 .77555 874.09 67.23)" gradientUnits="userSpaceOnUse" spreadMethod="pad"/><radialGradient xlink:href="#d" id="r" cx="478.89362" cy="288.51892" r="8.2664204" fx="478.89362" fy="288.51892" gradientTransform="matrix(1.09599 0 0 1.04757 -45.916 -14.399)" gradientUnits="userSpaceOnUse" spreadMethod="pad"/><radialGradient xlink:href="#d" id="k" cx="357.13959" cy="347.09683" r="8.5290184" fx="357.13959" fy="347.09683" gradientTransform="matrix(1.08793 -1.90526 1.67602 .95703 -610.04 702.534)" gradientUnits="userSpaceOnUse"/><radialGradient xlink:href="#d" id="s" cx="357.13959" cy="347.09683" r="8.5290184" fx="357.13959" fy="347.09683" gradientTransform="matrix(-1.08793 -1.90526 -1.67602 .95703 1567.933 702.534)" gradientUnits="userSpaceOnUse"/><radialGradient xlink:href="#d" id="f" cx="452.37601" cy="563.3623" r="12.24228" fx="452.37601" fy="563.3623" gradientTransform="matrix(.85679 0 0 .77036 64.786 129.368)" gradientUnits="userSpaceOnUse"/><radialGradient xlink:href="#d" id="u" cx="452.37601" cy="563.3623" r="12.24228" fx="452.37601" fy="563.3623" gradientTransform="matrix(-.85679 0 0 .77036 894.856 129.368)" gradientUnits="userSpaceOnUse"/><radialGradient xlink:href="#d" id="e" cx="479.62494" cy="566.7077" r="11.666365" fx="479.62494" fy="566.7077" gradientTransform="matrix(.85027 0 0 .63206 71.816 208.585)" gradientUnits="userSpaceOnUse"/><clipPath id="h" clipPathUnits="userSpaceOnUse"><path d="M423.572 366.835v115.767l55.354 35.567 55.35-35.567.081-115.59c-1.773-1.563-5.454-4.99-8.338-6.784h-94.442c-2.39 1.679-7.178 5.718-8.005 6.607z" style="fill:#ffe500;fill-opacity:1;stroke:none"/></clipPath><filter id="g"><feGaussianBlur stdDeviation="3.0914156"/></filter></defs><path d="M493.57 561.893c-1.172 3.447-4.907 11.9-13.95 11.9-10.283 0-13.85-11.127-14.023-11.596l-.304-1.053s8.857.736 13.735.736c4.867 0 13.205-.481 14.555-.736l-.013.749z" style="fill:#000;fill-opacity:1;fill-rule:nonzero;stroke:none" transform="translate(-330.946 -277.008)"/><path d="m520.556 556.407 2.11.267c-2.517 6.578-7.038 13.95-15.9 13.95-8.642 0-12.904-5.003-14.689-8.347l-1.51-.922s14.888-.481 29.989-4.948M438.998 556.407l-2.11.267c2.505 6.578 7.047 13.95 15.936 13.95 8.594 0 13.226-5.266 15.135-8.347l1.024-.922s-14.863-.481-29.985-4.948" style="fill:#000;fill-opacity:1;fill-rule:nonzero;stroke:none" transform="translate(-330.946 -277.008)"/><path d="M486.836 562.594c-1.403 2.008-2.345 1.905-4.002 1.905-.86 0-2.094.691-2.082 1.966.037 1.004.856 1.819 2.2 1.819 3.061 0 5.402-4.242 6.023-6.048 0 0 1.794-.074 2.316-.127 0 0-3.208 9.593-11.56 9.593-8.362 0-11.772-9.478-11.772-9.478s7.05.428 11.07.428c4.03 0 6.598-.037 7.807-.058" style="fill:url(#e);fill-opacity:1;fill-rule:nonzero;stroke:none" transform="translate(-330.946 -277.008)"/><path d="M440.134 558.366c5.434 1.44 9.317 2.658 18.47 3.768 0 0-.292.926-2.283.852-.761-.05-.864-.239-1.127-.284-.588-.107-1.44.49-1.354 1.481.091.7.675 1.567 2.707 1.567s4.398-1.653 5.595-3.2c0 0 1.213.284 2.476.345 0 0-3.912 5.463-11.596 5.463-8.437 0-11.58-7.573-12.888-9.992" style="fill:url(#f);fill-opacity:1;fill-rule:nonzero;stroke:none" transform="translate(-330.946 -277.008)"/><path d="M478.926 513.404c29.14 0 61.425-17.886 84.091-43.67 2.468-2.79 6.603-8.088 16.447-8.088 9.86 0 22.966 8.988 21.432 25.344-1.144 11.913-18.17 38.792-47.324 55.325-29.145 16.598-55.995 20.148-74.646 20.148-18.668 0-45.493-3.55-74.655-20.148-29.15-16.533-46.172-43.412-47.307-55.325-1.535-16.356 11.575-25.344 21.415-25.344 9.869 0 14.02 5.298 16.48 8.087 22.633 25.785 54.934 43.67 84.067 43.67z" style="fill:#ffe500;stroke:#000;stroke-width:2.0979716800000001;stroke-linecap:butt;stroke-linejoin:miter;stroke-miterlimit:3.86299992;stroke-opacity:1;stroke-dasharray:none;fill-opacity:1" transform="translate(-330.946 -277.008)"/><path d="M478.679 517.37c-29.322 0-62.688-17.303-87.263-45.292-2.502-2.843-5.686-6.5-13.263-6.5-4.426 0-9.445 2.37-12.773 6.035-2.505 2.723-5.315 7.524-4.64 14.883.975 10.054 16.907 36.073 45.304 52.232 22.888 13.02 47.328 19.597 72.635 19.597 25.332 0 49.771-6.578 72.66-19.597 28.388-16.159 44.345-42.178 45.283-52.232.703-7.359-2.127-12.16-4.6-14.883-3.344-3.665-8.375-6.035-12.78-6.035-7.61 0-10.79 3.657-13.27 6.5-24.56 27.99-57.967 45.291-87.293 45.291z" style="fill:#da020e;fill-opacity:1;fill-rule:nonzero;stroke:none" transform="translate(-330.946 -277.008)"/><path d="m604.816 371.406.103-6.796c2.094 1.6 6.03 1.625 8.334-.831 1.05-1.119 1.646-2.85 1.56-4.632-.1-2.012-1.012-4.101-2.514-5.574-8.507-8.314-16.064-16.615-16.064-16.615-.781-1.234-2.003-2.127-2.71-2.431-1.042-.498-4.744-2.189-7.566 2.098-2.546 3.883-2.168 9.358-1.678 11.357l7.976 10.873c2.732 3.464 10.428 10.831 12.56 12.55M434.325 300.934c10.042-3.373 19.223-6.162 31.597-7.256l1.876-1.054c-6.907-5.45-13.768-9.169-20.601-9.169-4.29 0-13.02 2.917-14.966 18.318l2.094-.839zM523.547 300.934c-10.046-3.373-19.22-6.162-31.581-7.256l-1.9-1.054c6.935-5.45 13.78-9.169 20.621-9.169 4.295 0 12.987 2.917 14.974 18.318l-2.114-.839z" style="fill:#000;fill-opacity:1;fill-rule:nonzero;stroke:none" transform="translate(-330.946 -277.008)"/><path d="M467.58 293.167c5.052-9.712 9.671-13.225 12.255-13.225 3.192 0 6.952 5.076 9.905 11.646l.622 1.489-2.596-.202c-1.703-.32-6.553-.382-8.404-.382-1.9 0-5.998 0-8.466.23l-3.316.444z" style="fill:#000;fill-opacity:1;fill-rule:nonzero;stroke:none" transform="translate(-330.946 -277.008)"/><path d="m427.747 512.044-7.314 13.222c-2.209 3.973-4.484 6.495-8.215 4.356-3.673-2.077-2.822-5.089-.567-9.194l7.334-13.238-5.915-3.283-7.75 13.991c-4.266 7.7 1.102 12.477 5.306 14.793 4.488 2.484 11.02 4.332 15.25-3.312l7.803-14.052-5.932-3.283zm94.055 27.24-2.464-7.586 7.34-2.37-1.017-3.155-7.347 2.382-2.09-6.483 7.512-2.464-1.012-3.123-13.752 4.472 7.643 23.497 15.159-4.916-1-3.134-8.972 2.88zm15.71-30.409-8.37 4.825 12.394 21.494 8.338-4.82c8.618-4.97 9.437-12.498 6.043-18.537-4.085-7.166-10.827-7.33-18.404-2.962m12.649 6.54c3.139 5.5 2.501 9.512-2.332 12.28l-2.304 1.341-9.1-15.722 2.477-1.436c5.804-3.336 9.1-.366 11.26 3.538m-66.967 10.071.448 3.221 6.92-.979 2.99 21.243 6.434-.892-2.983-21.231 6.817-.946-.47-3.266-20.156 2.85zm-5.858.202-6.48-.354-1.295 24.682 6.483.345 1.292-24.673zm-19.672-3.018-4.513 16.866-8.445-20.342-5.253-1.41-6.4 23.879 5.721 1.518 4.55-17.006 8.573 20.515 5.138 1.386 6.376-23.888-5.747-1.518z" style="fill:#ffe500;fill-opacity:1;fill-rule:nonzero;stroke:none" transform="translate(-330.946 -277.008)"/><path d="M423.572 366.835v115.767l55.354 35.567 55.35-35.567.081-115.59c-1.773-1.563-5.454-4.99-8.338-6.784h-94.442c-2.39 1.679-7.178 5.718-8.005 6.607z" style="fill:#ffe500;stroke:none;stroke-width:2.0979716800000001;stroke-linecap:butt;stroke-linejoin:miter;stroke-miterlimit:3.86299992;stroke-opacity:1;stroke-dasharray:none;fill-opacity:1" transform="translate(-330.946 -277.008)"/><path d="M423.572 319.812v162.79l55.354 35.567 55.349-35.567.082-162.613" clip-path="url(#h)" style="fill:none;stroke:#b54005;stroke-width:10;stroke-linecap:butt;stroke-linejoin:miter;stroke-miterlimit:3.86299992;stroke-opacity:1;stroke-dasharray:none;filter:url(#g)" transform="translate(-330.946 -277.008)"/><path d="M501.049 449.895v-4.303s-1.144-1.768-3.978-1.768c-2.826 0-4.517.851-4.517 1.563 0 1.164 2.53 4.508 8.495 4.508m-22.32-38.088 4.277-7.47 3.353 7.47h5.553c-3.34 3.135-4.706 7.878-4.706 11.041v3.447c0 1.465-.736 3.888-.736 3.888s4.821 3.673 5.562 4.31c.308.244.646.392.423 1.03-.382 1.073-3.657 2.55-3.99 2.83-.74.658-.934 1.053-.74 1.702.234.626.847.74 2.102.297 1.267-.408 3.891-1.786 6.092-2.728 2.193-.954 5.13-.711 5.13-.711v-4.217h-8.293v-13.398l-1.465-2.361 3.657-6.516 3.678 6.557-1.448 2.32v6.997h4.225v-6.997l-1.457-2.32 3.67-6.508 3.653 6.508-1.444 2.32v6.997h4.253v-6.997l-1.505-2.32 3.682-6.508 3.669 6.508-1.464 2.32.07 13.378h-8.36v6.187c1.897 1.78 3.686 5.812 3.686 8.186 0 2.43-1.583 3.46-1.583 3.46.53 1.908.427 2.702.201 4.43-.201 1.756-2.394 4.496-2.394 4.496v31.976c0 2.172-5.031 1.958-5.031.102v-31.358c-2.847-3.114-10.597-5.562-10.597-5.562-2.842 2.843-4.59 7.78-4.59 7.78 1.233.863 3.154 0 3.878-.84.712-.84 2.172-1.057 3.016-.527.827.527 1.032.729.748 1.963-.325 1.3-.843 3.377-.843 4.83 0 1.488 1.674 1.155 2.925 1.266 2.526.222 2.941 3.044 2.731 4.62-.205 1.583-.946 4.944-.946 7.034 0 2.07.111 4.159.317 5.344.218 1.143.63 2.406.514 3.883-.127 1.987-1.349 2.304-2.616 1.028-1.25-1.254-18.763-19.922-18.763-19.922-1.164 3.797 3.682 10.272 5.245 12.271 1.576 2 1.473 3.468.095 4.838-1.35 1.353-3.978 2.077-4.492 3.352-.535 1.234 1.255 5.036 4.936 9.75 3.67 4.706-4.212 7.865-8.914 8.807-4.735.93-4.735-2.32-4.406-4.101.313-1.765.313-2.839.198-4.39-.103-1.58-1.551-3.768-3.563-6.388-1.987-2.633-1.987-5.027-1.16-11.127.835-6.085.638-9.968.638-9.968s-2.098.086-5.142 0c-3.028-.115-5.541-1.872-5.755-9.219-.21-7.326-.383-24.822-.88-26.656-.486-1.814-2.448-2.148-3.275-2.39-.86-.214-.901-1.452-.07-1.897 2.188-1.065 4.813-3.751 3.842-5.421-.983-1.675-4.837-1.33-7.417-.066-2.587 1.25-5.315 3.998-6.018 4.747-.679.74-1.267.74-1.193-.058.086-.855-.477-4.858-.81-6.244-.37-1.399-1.621-4.044-2.045-4.743-.415-.704 0-.975.708-.704.678.28 2.233.926 3.694 1.313 1.472.444 2.875-.28 3.546-1.654.699-1.42 2.065-4.41 2.764-5.747.687-1.32 1.798-1.024 2.711-.823.905.214 1.744.774 2.58 1.107.83.345 1.525.28 1.822-.144.283-.403.629-.555 1.13-1.6.49-1.045 1.1-.547 1.177-.132 2.502 15.04 9.018 15.73 9.018 15.73-.98 2.506-3.275 6.5-3.818 7.508-.588.942-.806 2.283-.95 3.324-.111 1.037.362 10.971 1.057 14.612.708 3.644 2.933 2.225 3.657 1.11.67-1.11 2.855-5.734 2.855-5.734s.539-1.259.539-2.304c0-1.053-1.81-3.336-2.226-4.048-.432-.724-1.958-2.11-1.958-5.61 0-3.489 3.143-5.908 4.274-6.825 1.12-.917 1.12-2.189.967-2.954-.49-2.698-3.357-8.375-4.735-10.551-1.41-2.168-4.134-6.286-4.134-6.286h5.66l3.645-7.57 3.966 7.603 4.142.037zm-.918 22.93c1.847-3.053 2.62-6.224 2.62-6.224h-5.34s.856 3.245 2.72 6.224m-5.562-15.39c.214 1.563 1.378 2.16 2.263 1.703.88-.485.728-1.752.074-2.764-.626-.991-1.926-2.098-2.325-1.933-.407.168-.152 2.073-.012 2.994m10.585-2.994c-.383-.165-1.753.942-2.403 1.933-.625 1.012-.785 2.279.103 2.764.868.457 1.987-.152 2.267-1.703.152-.921.452-2.826.033-2.994" style="fill:url(#i);fill-opacity:1;fill-rule:nonzero;stroke:none" transform="translate(-330.946 -277.008)"/><path d="M96.969 118.688v6.968h102.125v-6.969h-7.531v1.126H104.5v-1.126h-7.531z" style="fill:#da020e;fill-opacity:1;fill-rule:nonzero;stroke:none"/><path d="M427.92 364.38h102.106v27.766H427.92V364.38z" style="fill:#da020e;fill-opacity:1;fill-rule:nonzero;stroke:none" transform="translate(-330.946 -277.008)"/><path d="m445.465 384.085 7.82 1.921 4.22-11.761v-2.978zm64.449 6.933v-3.622h-7.38v-3.045h6.03v-13.427h-5.557l-1.9-3.694-1.856 3.694h-5.574v13.427h6.056v3.045h-14.518v-3.045h6.04v-13.427h-5.566l-1.88-3.694-1.901 3.694h-5.55v13.427h6.068v3.045H467.61v-3.045h6.051v-13.427h-5.574l-1.863-3.694-1.913 3.694h-5.554v13.427h6.072v3.045l-11.724.037-11.662-2.724 2.336 6.309h66.136z" style="fill:#ffe500;fill-opacity:1;fill-rule:nonzero;stroke:none" transform="translate(-330.946 -277.008)"/><path d="M434.905 299.84c9.857-3.3 17.306-5.87 29.446-6.948-5.595-3.883-10.56-7.17-16.27-7.17-3.003 0-5.57 1.147-6.162 3.245-.551 1.91.954 2.74 1.49 2.613.559-.144.958-.309.822-.827-.144-.547.28-1.938 2.188-1.938 1.942 0 2.674 1.798 2.674 3.032s-1.958 3.295-5.557 3.295c-3.53 0-5.34-2.353-5.204-4.53-1.703 2.494-2.695 5.015-3.427 9.228" style="fill:url(#j);fill-opacity:1;fill-rule:nonzero;stroke:none" transform="translate(-330.946 -277.008)"/><path d="m366.223 358.853 8.006-10.872c.46-2 .826-7.47-1.732-11.354-2.798-4.29-6.483-2.596-7.565-2.098-.683.305-1.925 1.193-2.69 2.431 0 0-7.697 8.474-16.167 16.813-1.197 1.189-2.514 3.36-2.625 5.372-.103 1.786.617 3.58 1.654 4.698 2.316 2.468 6.364 2.37 8.433.765l.144 6.796c2.13-1.715 9.815-9.087 12.542-12.55" style="fill:#000;fill-opacity:1;fill-rule:nonzero;stroke:none" transform="translate(-330.946 -277.008)"/><path d="M478.926 343.03c45.58 0 71.512 42.783 77.172 50.295 10.054 13.418 22.362 24.311 36.624 20.712 20.951-5.36 19.86-36.394 19.86-36.394-5.055-3.64-13.669-8.223-29.375-30.486-15.38-21.823-50.187-54.152-104.281-54.152-54.107 0-88.905 32.329-104.249 54.152-15.722 22.263-24.365 26.846-29.372 30.486 0 0-1.13 31.034 19.837 36.394 14.253 3.6 26.553-7.294 36.624-20.712 5.64-7.512 31.588-50.294 77.16-50.294z" style="fill:#ffe500;stroke:#000;stroke-width:2.0979716800000001;stroke-linecap:butt;stroke-linejoin:miter;stroke-miterlimit:3.86299992;stroke-opacity:1;stroke-dasharray:none;fill-opacity:1" transform="translate(-330.946 -277.008)"/><path d="M478.926 338.969c43.942 0 70.076 37.274 79.527 50.724 12.508 16.695 23.096 22.997 33.27 20.41 14.702-3.744 16.528-23.979 16.726-30.104v-.243l-.165-.127c-5.183-3.592-13.855-9.544-28.384-30.141-8.668-12.3-41.573-52.462-100.974-52.462-59.381 0-92.315 40.162-100.979 52.462-14.41 20.465-23.472 26.706-28.326 30.038l-.206.168.025.214c.197 6.138 2.028 26.48 16.693 30.195 10.185 2.587 20.795-3.715 33.27-20.41 9.442-13.45 35.601-50.724 79.523-50.724" style="fill:#da020e;fill-opacity:1;fill-rule:nonzero;stroke:none" transform="translate(-330.946 -277.008)"/><path d="M455.054 307.831c-8.063 1.708-13.374 7.652-11.633 15.71 1.011 4.353 4.895 12.362 17.178 9.75 3.41-.65 5.253-2.008 7.039-3.715l-2.238-2.57c-.843.937-2.102 2.303-4.928 2.891-5.945 1.255-9.478-3.554-10.359-7.705-1.308-6.15 2.275-10.387 6.323-11.263 2.892-.638 4.645.148 5.755.58h.037l.753-3.151c-1.95-.782-4.29-1.3-7.927-.527m67.431 35.454c4.612 2.776 9.643 2.303 11.996-1.592 1.711-2.724 1.727-4.986-.33-9.038-.53-1.148-1.225-1.97-1.69-3.015-.91-1.695-1.748-3.081-.967-4.394.864-1.423 2.863-1.538 4.673-.432 1.897 1.148 2.682 3.044 3.081 4.34l2.975-1.283c-.914-2.444-2.267-4.636-5.36-6.467-5.287-3.184-9.585-2.345-11.375.638-1.814 2.999-1.3 5.496.066 8.054 0 0 .847 1.452 1.337 2.444 1.197 1.999 2.592 4.52 1.613 6.096-1.185 1.987-3.226 2.42-5.212 1.185-2.547-1.604-3.143-3.472-3.674-5.294l-3.27 1.398c.72 2.51 2.41 5.11 6.137 7.36m-35.205-36.75-.185 10.07-9.683-.14.144-10.107-6.492-.12-.432 24.711 6.504.14.206-11.33 9.7.178-.185 11.308 6.495.099.424-24.71-6.496-.1zM580.278 385c.046.062 3.81 1.922 7.993-1.834 3.497-3.143 2.324-7.45-1.329-11.494l-6.734-7.483-18.359 16.546 4.34 4.813 7.31-6.558 2.11 2.382-4.628 10.44 5.541 4.427 3.756-11.239zm3.279-12.172c1.72 1.909 1.748 4.175-.251 5.936-1.946 1.794-4.43 1.382-6.319-.691l-1.098-1.23 6.216-5.615 1.452 1.6zm-28.652-6.313 6.15-5.105 4.932 5.87 2.55-2.126-4.96-5.895 5.204-4.381 5.08 6.05 2.522-2.101-9.28-11.062-18.92 15.887 10.219 12.197 2.55-2.118-6.047-7.216zm-7.092-37.132-2.205 2.419 5.183 4.686-14.364 15.936 4.845 4.356 14.345-15.94 5.117 4.607 2.197-2.419-15.118-13.645zm-42.3 1.567 2.616-7.537 7.277 2.51 1.082-3.135-7.29-2.505 2.217-6.454 7.5 2.57 1.053-3.118-13.662-4.701-8.03 23.402 15.056 5.155 1.07-3.119-8.89-3.068zm-78.239-12.107 9.28 14.792-20.662-7.713-4.6 2.888 13.103 20.992 4.99-3.143-9.342-14.945 20.876 7.75 4.509-2.826-13.127-20.98-5.027 3.185zm-28.902 22.353-4.225 4.533 11.843 23.551 2.892-3.093-3.217-6.266 5.718-6.15 6.483 2.748 4.764-5.1-24.258-10.223zm9.988 11.214-4.29 4.607-4.41-8.474 8.7 3.867zm-23.946 3.73-4.599 5.476 8.593 17.77-18.429-6.034-3.965 4.698 18.935 15.9 2.875-3.415-13.381-11.263 17.935 5.841 1.888-2.238-8.552-17.137 13.44 11.267 4.195-4.965-18.935-15.9z" style="fill:#ffe500;fill-opacity:1;fill-rule:nonzero;stroke:none" transform="translate(-330.946 -277.008)"/><path d="m355.487 368.733-.02-5.45c9.3-8.54 13.685-17.121 13.685-17.121s-3.418-1.288-4.948-3.234c-.757-1.081-1.05-2.558-.922-3.55.296-1.859 1.744-2.801 2.238-3.015 1.07-.46 3.056-1.506 5.27 1.539 2.357 3.295 1.736 9.547 1.41 10.987 0 0-4.335 7.549-16.713 19.844" style="fill:url(#k);fill-opacity:1;fill-rule:nonzero;stroke:none" transform="translate(-330.946 -277.008)"/><path d="M365.78 347.156c-1.256 2.189-4.419 7.47-12.42 14.97-1.329 1.246-4.644 2.303-6.524.193-.704-.819-1.169-1.966-1.099-3.3.09-1.542 1.016-3.335 1.946-4.125 1.613-1.362 8.487-8.302 13.374-13.76.135.995.991 2.661.991 2.661.675.93 1.497 2.267 3.731 3.361" style="fill:url(#l);fill-opacity:1;fill-rule:nonzero;stroke:none" transform="translate(-330.946 -277.008)"/><path d="M478.679 517.37c-29.322 0-62.688-17.303-87.263-45.292-2.502-2.843-5.686-6.5-13.263-6.5-4.426 0-9.445 2.37-12.773 6.035-2.505 2.723-5.315 7.524-4.64 14.883.975 10.054 16.907 36.073 45.304 52.232 22.888 13.02 47.328 19.597 72.635 19.597" style="fill:url(#m);fill-opacity:1;fill-rule:nonzero;stroke:none" transform="translate(-330.946 -277.008)"/><path d="M478.679 517.37c29.322 0 62.688-17.303 87.263-45.292 2.501-2.843 5.685-6.5 13.263-6.5 4.426 0 9.445 2.37 12.772 6.035 2.506 2.723 5.315 7.524 4.64 14.883-.974 10.054-16.906 36.073-45.303 52.232-22.889 13.02-47.328 19.597-72.635 19.597" style="fill:url(#n);fill-opacity:1;fill-rule:nonzero;stroke:none" transform="translate(-330.946 -277.008)"/><path d="M558.453 389.693c12.508 16.695 23.096 22.997 33.27 20.41 14.702-3.744 16.528-23.979 16.726-30.104v-.243l-.165-.127c-5.183-3.592-13.855-9.544-28.384-30.141" style="fill:url(#o);fill-opacity:1;fill-rule:nonzero;stroke:none" transform="translate(-330.946 -277.008)"/><path d="M399.439 389.693c-12.508 16.695-23.096 22.997-33.27 20.41-14.702-3.744-16.528-23.979-16.726-30.104v-.243l.165-.127c5.183-3.592 13.855-9.544 28.384-30.141" style="fill:url(#p);fill-opacity:1;fill-rule:nonzero;stroke:none" transform="translate(-330.946 -277.008)"/><path d="M522.987 299.84c-9.857-3.3-17.306-5.87-29.446-6.948 5.595-3.883 10.56-7.17 16.27-7.17 3.003 0 5.57 1.147 6.162 3.245.551 1.91-.954 2.74-1.49 2.613-.559-.144-.958-.309-.822-.827.144-.547-.28-1.938-2.188-1.938-1.942 0-2.674 1.798-2.674 3.032s1.958 3.295 5.557 3.295c3.53 0 5.34-2.353 5.204-4.53 1.703 2.494 2.695 5.015 3.427 9.228" style="fill:url(#q);fill-opacity:1;fill-rule:nonzero;stroke:none" transform="translate(-330.946 -277.008)"/><path d="M479.388 286.902c-.309 1.884-2.476 3.69-4.67 3.69-2.196 0-2.854-.354-2.854-.354-.333.518-.625.917-.97 1.477 1.99-.078 6.61-.206 8.461-.206 1.847 0 6.969.268 8.071.346-1.781-4.176-5.216-9.955-7.59-9.955-.082 0-.185-.008-.312-.008-.556 0-2.48 1.668-3.51 3.132-1.354 1.924 3.374 1.878 3.374 1.878z" style="fill:url(#r);fill-opacity:1" transform="translate(-330.946 -277.008)"/><path d="m602.405 368.733.02-5.45c-9.3-8.54-13.685-17.121-13.685-17.121s3.418-1.288 4.948-3.234c.757-1.081 1.05-2.558.922-3.55-.296-1.859-1.744-2.801-2.238-3.015-1.07-.46-3.056-1.506-5.27 1.539-2.357 3.295-1.736 9.547-1.41 10.987 0 0 4.335 7.549 16.713 19.844" style="fill:url(#s);fill-opacity:1;fill-rule:nonzero;stroke:none" transform="translate(-330.946 -277.008)"/><path d="M592.113 347.156c1.255 2.189 4.418 7.47 12.419 14.97 1.329 1.246 4.644 2.303 6.524.193.704-.819 1.169-1.966 1.099-3.3-.09-1.542-1.016-3.335-1.946-4.125-1.613-1.362-8.487-8.302-13.374-13.76-.135.995-.991 2.661-.991 2.661-.675.93-1.497 2.267-3.731 3.361" style="fill:url(#t);fill-opacity:1;fill-rule:nonzero;stroke:none" transform="translate(-330.946 -277.008)"/><path d="M423.572 366.835v115.767l55.354 35.567 55.35-35.567.081-115.59c-1.773-1.563-5.454-4.99-8.338-6.784h-94.442c-2.39 1.679-7.178 5.718-8.005 6.607z" style="fill:none;stroke:#000;stroke-width:2.0979716800000001;stroke-linecap:butt;stroke-linejoin:miter;stroke-miterlimit:3.86299992;stroke-opacity:1;stroke-dasharray:none;fill-opacity:1" transform="translate(-330.946 -277.008)"/><path d="M519.508 558.366c-5.434 1.44-9.317 2.658-18.47 3.768 0 0 .292.926 2.283.852.761-.05.864-.239 1.127-.284.588-.107 1.44.49 1.354 1.481-.091.7-.675 1.567-2.707 1.567s-4.398-1.653-5.595-3.2c0 0-1.213.284-2.476.345 0 0 3.912 5.463 11.596 5.463 8.437 0 11.58-7.573 12.888-9.992" style="fill:url(#u);fill-opacity:1;fill-rule:nonzero;stroke:none" transform="translate(-330.946 -277.008)"/><path d="M335.194 439.535c0-13.966 11.333-25.324 25.316-25.324 13.986 0 25.31 11.358 25.31 25.324 0 13.99-11.324 25.324-25.31 25.324-13.983 0-25.316-11.333-25.316-25.324z" style="fill:#ffe500;stroke:#000;stroke-width:2.0979716800000001;stroke-linecap:butt;stroke-linejoin:miter;stroke-miterlimit:3.86299992;stroke-opacity:1;stroke-dasharray:none;fill-opacity:1" transform="translate(-330.946 -277.008)"/><path d="M340.99 438.593c0-10.588 8.738-19.2 19.52-19.2 10.783 0 19.516 8.612 19.516 19.2 0 10.608-8.733 19.2-19.517 19.2-10.781 0-19.52-8.592-19.52-19.2z" style="fill:url(#v);fill-opacity:1;stroke:none" transform="translate(-330.946 -277.008)"/><path d="M365.886 456.94c-1.11.353-1.592-.424-2.098-.984-1.97-2.266-2.476-8.3-2.476-9.099 0-.802.296-1.682.86-1.703 4.75-.09 8.145-1.469 11.259-4.056 3.11-2.542 4.459-5.459 4.734-5.977.272-.576.918-.473 1.037.325.132.666.383 1.863.383 3.159 0 8.696-5.862 15.8-13.699 18.335m-5.014.785c-.136 0-.288.017-.416.017-3.5 0-7.355-1.337-9.638-2.637-2.366-1.288-3.254-7.36-3.254-10.428 0-9.992 4.097-15.94 4.763-17.109.65-1.185 2.115-1.308 3.189-1.02 1.11.32 1.505.514 2.784.893.667.218 2.02.493 3.036.674 1.016.243 2.11.457 1.453 2.353-.65 1.9-2.864 6.467-3.086 11.88-.214 4.9.436 9.766 1.543 12.757.728 1.933.728 2.657-.374 2.62m-14.464-22.81c-.934-.494-2.057-2.904-2.435-3.608-.255-.506-.255-1.954.11-2.57 1.564-2.736 3.781-5.27 6.636-6.59.35-.153.84-.182.84.657 0 .449.242 1.148.25 1.592 0 .449.19 1.366-.378 2.09-.597.728-3.151 5.257-3.805 7.796-.107.567-.28 1.164-1.218.633m-.527 16.035c-2.649-2.616-4.537-7.355-4.537-12.345 0-1.937.288-3.793.802-5.553 0 0 .473-.79.885-.12.316.494.752.992 1.106 1.65.395.658 2.444 2.217 2.27 3.488-.715 4.67-.073 10.873.149 11.918.197 1.032-.086 1.472-.675.962m8.363-30.433a19.756 19.756 0 0 1 6.212-1.016c3.279 0 6.463.597 9.12 2.291.683.445.876.963.876 1.732 0 2.506-3.916 3.345-6.508 3.345-2.608 0-5.816-1.033-8.087-1.753-2.263-.707-2.756-2.015-2.756-2.612 0-.572.44-1.756 1.143-1.987m17.681 2.785 1.275 1.033c1.827 1.666 3.476 3.566 4.435 5.845 1.197 2.872-2.518 7.22-3.608 8.223-4.92 4.62-8.001 4.534-9.745 4.785-1.744.255-2.876-.84-2.83-2.152.11-3.842 2.846-10.465 3.632-11.711.502-.803 1.374-1.3 1.374-1.3 1.826-.506 3.6-1.267 4.517-2.312.896-1.062.95-2.41.95-2.41m-11.28-5.048c-11.76 0-21.284 9.527-21.284 21.28 0 11.76 9.523 21.284 21.284 21.284 11.753 0 21.297-9.523 21.297-21.284 0-11.753-9.544-21.28-21.297-21.28" style="fill:#da020e;fill-opacity:1;fill-rule:nonzero;stroke:none" transform="translate(-330.946 -277.008)"/><path d="M572.561 439.486c0-13.966 11.333-25.283 25.316-25.283 13.99 0 25.315 11.317 25.315 25.283 0 13.99-11.325 25.328-25.315 25.328-13.983 0-25.316-11.338-25.316-25.328z" style="fill:#ffe500;stroke:#000;stroke-width:2.0979716800000001;stroke-linecap:butt;stroke-linejoin:miter;stroke-miterlimit:3.86299992;stroke-opacity:1;stroke-dasharray:none;fill-opacity:1" transform="translate(-330.946 -277.008)"/><path d="M612.702 450.863c-.555.547-.868.07-.633-.955.193-1.016.839-7.24.119-11.909-.177-1.267 1.884-2.822 2.262-3.488.379-.654.81-1.165 1.115-1.642.424-.69.872.083.872.083a19.03 19.03 0 0 1 .807 5.574c0 5.006-1.913 9.728-4.542 12.337m-1.715-16.648c-.658-2.53-3.23-7.08-3.81-7.804-.584-.7-.399-1.63-.39-2.078 0-.444.255-1.155.255-1.616 0-.802.485-.786.83-.634 2.872 1.32 5.077 3.818 6.657 6.578.35.63.358 2.07.098 2.559-.37.707-1.485 3.118-2.44 3.628-.953.522-1.093-.086-1.2-.633m-3.197 20.819c-2.287 1.28-6.141 2.628-9.658 2.628h-.408c-1.082.03-1.106-.724-.366-2.649 1.074-2.966 1.744-7.853 1.522-12.74-.222-5.438-2.406-9.955-3.085-11.868-.658-1.896.44-2.127 1.469-2.34 1.02-.202 2.369-.498 3.04-.712 1.258-.383 1.666-.576 2.776-.893 1.082-.28 2.538-.14 3.2 1.016.65 1.185 4.756 7.17 4.756 17.138 0 3.052-.897 9.116-3.246 10.42m-15.068 1.826c-7.857-2.546-13.707-9.646-13.707-18.334 0-1.28.251-2.464.354-3.156.152-.798.753-.93 1.053-.341.276.535 1.642 3.447 4.735 5.998 3.135 2.567 6.495 3.97 11.276 4.068.58.029.851.88.851 1.7 0 .81-.49 6.832-2.452 9.082-.522.576-1.024 1.366-2.11.983m-11.74-26.747c.933-2.279 2.591-4.212 4.418-5.841 0 0 .905-.765 1.254-1.033 0 0 .074 1.362.984 2.382.905 1.028 2.661 1.835 4.488 2.316 0 0 .86.522 1.374 1.325.81 1.21 3.525 7.824 3.644 11.695.033 1.316-1.086 2.41-2.834 2.16-1.752-.235-4.825-.182-9.741-4.776-1.086-1.008-4.8-5.348-3.587-8.228m8.03-8.392c2.694-1.703 5.837-2.3 9.12-2.3 2.172 0 4.237.371 6.215 1.021.728.226 1.156 1.399 1.156 1.987 0 .58-.481 1.904-2.76 2.616-2.27.7-5.467 1.744-8.071 1.744-2.62 0-6.524-.851-6.524-3.344 0-.753.189-1.3.864-1.724m8.918-3.521c-11.749 0-21.276 9.531-21.276 21.255 0 11.79 9.527 21.284 21.276 21.284 11.77 0 21.296-9.494 21.296-21.284 0-11.724-9.527-21.255-21.296-21.255" style="fill:#da020e;fill-opacity:1;fill-rule:nonzero;stroke:none" transform="translate(-330.946 -277.008)"/><path d="M578.646 438.5c0-10.589 8.738-19.2 19.52-19.2 10.784 0 19.516 8.611 19.516 19.2 0 10.607-8.732 19.2-19.517 19.2-10.78 0-19.52-8.593-19.52-19.2z" style="fill:url(#w);fill-opacity:1;stroke:none" transform="translate(-330.946 -277.008)"/></svg>